<svg id="svg" version="1.1" xmlns="http://www.w3.org/2000/svg" xmlns:xlink="http://www.w3.org/1999/xlink" width="400" height="400" viewBox="0, 0, 400,400"><g id="svgg"><path id="path0" d="M177.700 0.275 C 175.665 0.360,174.000 0.603,174.000 0.815 C 174.000 1.027,172.655 1.200,171.000 1.200 C 169.267 1.200,168.000 1.369,168.000 1.600 C 168.000 1.822,166.933 2.000,165.600 2.000 C 164.267 2.000,163.200 2.178,163.200 2.400 C 163.200 2.620,162.300 2.800,161.200 2.800 C 160.100 2.800,159.200 2.980,159.200 3.200 C 159.200 3.420,158.300 3.600,157.200 3.600 C 156.100 3.600,155.200 3.780,155.200 4.000 C 155.200 4.220,154.581 4.400,153.824 4.400 C 153.067 4.400,152.336 4.580,152.200 4.800 C 152.064 5.020,151.143 5.200,150.153 5.200 C 149.055 5.200,148.449 5.356,148.600 5.600 C 148.751 5.844,148.137 6.000,147.024 6.000 C 145.669 6.000,145.200 6.154,145.200 6.600 C 145.200 7.000,144.800 7.200,144.000 7.200 C 143.340 7.200,142.800 7.380,142.800 7.600 C 142.800 7.820,142.080 8.000,141.200 8.000 C 140.320 8.000,139.600 8.180,139.600 8.400 C 139.600 8.620,139.060 8.800,138.400 8.800 C 137.740 8.800,137.200 8.980,137.200 9.200 C 137.200 9.420,136.660 9.600,136.000 9.600 C 135.340 9.600,134.800 9.780,134.800 10.000 C 134.800 10.220,134.170 10.400,133.400 10.400 C 132.630 10.400,132.000 10.580,132.000 10.800 C 132.000 11.020,131.460 11.200,130.800 11.200 C 130.140 11.200,129.599 11.335,129.597 11.500 C 129.592 11.947,127.574 12.800,126.520 12.800 C 126.014 12.800,125.600 12.980,125.600 13.200 C 125.600 13.420,125.240 13.600,124.800 13.600 C 124.360 13.600,124.000 13.780,124.000 14.000 C 124.000 14.220,123.460 14.400,122.800 14.400 C 122.140 14.400,121.600 14.580,121.600 14.800 C 121.600 15.020,121.240 15.200,120.800 15.200 C 120.360 15.200,120.000 15.380,120.000 15.600 C 120.000 15.820,119.640 16.000,119.200 16.000 C 118.760 16.000,118.400 16.180,118.400 16.400 C 118.400 16.620,118.040 16.800,117.600 16.800 C 117.160 16.800,116.800 16.980,116.800 17.200 C 116.800 17.420,116.170 17.600,115.400 17.600 C 114.630 17.600,114.000 17.780,114.000 18.000 C 114.000 18.220,113.655 18.400,113.233 18.400 C 112.812 18.400,112.407 18.535,112.333 18.700 C 112.141 19.132,108.828 20.800,108.162 20.800 C 107.853 20.800,107.600 20.980,107.600 21.200 C 107.600 21.420,107.240 21.600,106.800 21.600 C 106.360 21.600,106.000 21.780,106.000 22.000 C 106.000 22.220,105.640 22.400,105.200 22.400 C 104.760 22.400,104.400 22.580,104.400 22.800 C 104.400 23.020,104.080 23.200,103.688 23.200 C 103.297 23.200,102.717 23.560,102.400 24.000 C 102.083 24.440,101.503 24.800,101.112 24.800 C 100.720 24.800,100.400 25.070,100.400 25.400 C 100.400 25.730,100.080 26.000,99.688 26.000 C 99.297 26.000,98.717 26.360,98.400 26.800 C 98.083 27.240,97.413 27.600,96.912 27.600 C 96.410 27.600,96.000 27.780,96.000 28.000 C 96.000 28.220,95.706 28.400,95.347 28.400 C 94.988 28.400,94.401 28.715,94.043 29.100 C 93.241 29.962,91.787 30.800,91.094 30.800 C 90.809 30.800,90.317 31.160,90.000 31.600 C 89.683 32.040,89.143 32.400,88.800 32.400 C 88.457 32.400,87.917 32.760,87.600 33.200 C 87.283 33.640,86.775 34.000,86.472 34.000 C 86.169 34.000,85.417 34.540,84.800 35.200 C 84.183 35.860,83.431 36.400,83.128 36.400 C 82.825 36.400,82.317 36.760,82.000 37.200 C 81.683 37.640,81.122 38.000,80.754 38.000 C 80.387 38.000,79.978 38.281,79.846 38.625 C 79.714 38.969,79.424 39.139,79.203 39.002 C 78.981 38.865,78.800 39.044,78.800 39.400 C 78.800 39.756,78.640 39.949,78.445 39.828 C 78.250 39.708,77.997 39.967,77.883 40.404 C 77.741 40.946,77.336 41.200,76.614 41.200 C 76.008 41.200,75.659 41.372,75.800 41.600 C 75.936 41.820,75.756 42.000,75.400 42.000 C 75.044 42.000,74.864 42.180,75.000 42.400 C 75.136 42.620,74.967 42.800,74.624 42.800 C 74.281 42.800,74.000 43.070,74.000 43.400 C 74.000 43.730,73.720 44.000,73.378 44.000 C 73.036 44.000,71.696 45.080,70.400 46.400 C 69.104 47.720,67.846 48.800,67.603 48.800 C 67.360 48.800,65.919 50.060,64.400 51.600 C 62.881 53.140,61.532 54.400,61.401 54.400 C 61.076 54.400,59.503 56.075,58.937 57.024 C 58.683 57.451,58.278 57.755,58.037 57.700 C 57.797 57.645,57.645 57.797,57.700 58.037 C 57.755 58.278,57.451 58.683,57.024 58.937 C 56.075 59.503,54.400 61.076,54.400 61.401 C 54.400 61.532,53.140 62.881,51.600 64.400 C 50.060 65.919,48.800 67.360,48.800 67.603 C 48.800 67.846,47.720 69.104,46.400 70.400 C 45.080 71.696,44.000 73.036,44.000 73.378 C 44.000 73.720,43.807 74.000,43.571 74.000 C 43.007 74.000,42.000 75.022,42.000 75.595 C 42.000 75.844,41.820 75.936,41.600 75.800 C 41.380 75.664,41.200 75.844,41.200 76.200 C 41.200 76.587,41.015 76.733,40.738 76.562 C 40.464 76.393,40.385 76.451,40.542 76.706 C 40.688 76.942,40.544 77.399,40.223 77.720 C 39.901 78.042,39.750 78.416,39.886 78.552 C 40.022 78.689,39.823 78.800,39.443 78.800 C 39.063 78.800,38.865 78.981,39.002 79.203 C 39.139 79.424,38.969 79.714,38.625 79.846 C 38.281 79.978,38.000 80.387,38.000 80.754 C 38.000 81.122,37.640 81.683,37.200 82.000 C 36.760 82.317,36.400 82.825,36.400 83.128 C 36.400 83.431,35.860 84.183,35.200 84.800 C 34.540 85.417,34.000 86.169,34.000 86.472 C 34.000 86.775,33.640 87.283,33.200 87.600 C 32.760 87.917,32.400 88.457,32.400 88.800 C 32.400 89.143,32.040 89.683,31.600 90.000 C 31.160 90.317,30.800 90.809,30.800 91.094 C 30.800 91.787,29.962 93.241,29.100 94.043 C 28.715 94.401,28.400 94.988,28.400 95.347 C 28.400 95.706,28.220 96.000,28.000 96.000 C 27.780 96.000,27.600 96.410,27.600 96.912 C 27.600 97.413,27.240 98.083,26.800 98.400 C 26.360 98.717,26.000 99.297,26.000 99.688 C 26.000 100.080,25.820 100.400,25.600 100.400 C 25.380 100.400,25.200 100.760,25.200 101.200 C 25.200 101.640,25.007 102.000,24.771 102.000 C 24.134 102.000,23.200 103.053,23.200 103.771 C 23.200 104.117,23.020 104.400,22.800 104.400 C 22.580 104.400,22.400 104.760,22.400 105.200 C 22.400 105.640,22.220 106.000,22.000 106.000 C 21.780 106.000,21.600 106.360,21.600 106.800 C 21.600 107.240,21.420 107.600,21.200 107.600 C 20.980 107.600,20.800 107.853,20.800 108.162 C 20.800 108.828,19.132 112.141,18.700 112.333 C 18.535 112.407,18.400 112.812,18.400 113.233 C 18.400 113.655,18.220 114.000,18.000 114.000 C 17.780 114.000,17.600 114.630,17.600 115.400 C 17.600 116.170,17.420 116.800,17.200 116.800 C 16.980 116.800,16.800 117.160,16.800 117.600 C 16.800 118.040,16.620 118.400,16.400 118.400 C 16.180 118.400,16.000 118.760,16.000 119.200 C 16.000 119.640,15.820 120.000,15.600 120.000 C 15.380 120.000,15.200 120.360,15.200 120.800 C 15.200 121.240,15.020 121.600,14.800 121.600 C 14.580 121.600,14.400 122.140,14.400 122.800 C 14.400 123.460,14.220 124.000,14.000 124.000 C 13.780 124.000,13.600 124.360,13.600 124.800 C 13.600 125.240,13.420 125.600,13.200 125.600 C 12.980 125.600,12.800 126.014,12.800 126.520 C 12.800 127.574,11.947 129.592,11.500 129.597 C 11.335 129.599,11.200 130.140,11.200 130.800 C 11.200 131.460,11.020 132.000,10.800 132.000 C 10.580 132.000,10.400 132.630,10.400 133.400 C 10.400 134.170,10.220 134.800,10.000 134.800 C 9.780 134.800,9.600 135.340,9.600 136.000 C 9.600 136.660,9.420 137.200,9.200 137.200 C 8.980 137.200,8.800 137.740,8.800 138.400 C 8.800 139.060,8.620 139.600,8.400 139.600 C 8.180 139.600,8.000 140.320,8.000 141.200 C 8.000 142.080,7.820 142.800,7.600 142.800 C 7.380 142.800,7.200 143.340,7.200 144.000 C 7.200 144.800,7.000 145.200,6.600 145.200 C 6.154 145.200,6.000 145.669,6.000 147.024 C 6.000 148.137,5.844 148.751,5.600 148.600 C 5.356 148.449,5.200 149.055,5.200 150.153 C 5.200 151.143,5.020 152.064,4.800 152.200 C 4.580 152.336,4.400 153.067,4.400 153.824 C 4.400 154.581,4.220 155.200,4.000 155.200 C 3.780 155.200,3.600 156.100,3.600 157.200 C 3.600 158.300,3.420 159.200,3.200 159.200 C 2.980 159.200,2.800 160.100,2.800 161.200 C 2.800 162.300,2.620 163.200,2.400 163.200 C 2.178 163.200,2.000 164.267,2.000 165.600 C 2.000 166.933,1.822 168.000,1.600 168.000 C 1.369 168.000,1.200 169.256,1.200 170.967 C 1.200 172.984,1.040 173.987,0.700 174.100 C -0.032 174.344,-0.032 225.656,0.700 225.900 C 1.040 226.013,1.200 227.016,1.200 229.033 C 1.200 230.744,1.369 232.000,1.600 232.000 C 1.822 232.000,2.000 233.067,2.000 234.400 C 2.000 235.733,2.178 236.800,2.400 236.800 C 2.620 236.800,2.800 237.700,2.800 238.800 C 2.800 239.900,2.980 240.800,3.200 240.800 C 3.420 240.800,3.600 241.700,3.600 242.800 C 3.600 243.900,3.780 244.800,4.000 244.800 C 4.220 244.800,4.400 245.621,4.400 246.624 C 4.400 247.737,4.556 248.351,4.800 248.200 C 5.044 248.049,5.200 248.663,5.200 249.776 C 5.200 250.779,5.380 251.600,5.600 251.600 C 5.820 251.600,6.000 252.320,6.000 253.200 C 6.000 254.356,6.167 254.800,6.600 254.800 C 7.000 254.800,7.200 255.200,7.200 256.000 C 7.200 256.660,7.380 257.200,7.600 257.200 C 7.820 257.200,8.000 257.920,8.000 258.800 C 8.000 259.680,8.180 260.400,8.400 260.400 C 8.620 260.400,8.800 260.940,8.800 261.600 C 8.800 262.260,8.980 262.800,9.200 262.800 C 9.420 262.800,9.600 263.430,9.600 264.200 C 9.600 264.970,9.780 265.600,10.000 265.600 C 10.220 265.600,10.400 266.140,10.400 266.800 C 10.400 267.460,10.580 268.000,10.800 268.000 C 11.020 268.000,11.200 268.439,11.200 268.976 C 11.200 269.513,11.380 270.064,11.600 270.200 C 11.820 270.336,12.000 270.797,12.000 271.224 C 12.000 271.651,12.180 272.000,12.400 272.000 C 12.620 272.000,12.800 272.540,12.800 273.200 C 12.800 273.860,12.980 274.400,13.200 274.400 C 13.420 274.400,13.600 274.760,13.600 275.200 C 13.600 275.640,13.780 276.000,14.000 276.000 C 14.220 276.000,14.400 276.540,14.400 277.200 C 14.400 277.860,14.580 278.400,14.800 278.400 C 15.020 278.400,15.200 278.760,15.200 279.200 C 15.200 279.640,15.380 280.000,15.600 280.000 C 15.820 280.000,16.000 280.360,16.000 280.800 C 16.000 281.240,16.180 281.600,16.400 281.600 C 16.620 281.600,16.800 282.050,16.800 282.600 C 16.800 283.150,16.980 283.600,17.200 283.600 C 17.420 283.600,17.600 284.140,17.600 284.800 C 17.600 285.460,17.735 286.001,17.900 286.003 C 18.259 286.007,19.200 287.944,19.200 288.680 C 19.200 288.966,19.380 289.200,19.600 289.200 C 19.820 289.200,20.000 289.560,20.000 290.000 C 20.000 290.440,20.180 290.800,20.400 290.800 C 20.620 290.800,20.800 291.160,20.800 291.600 C 20.800 292.040,20.980 292.400,21.200 292.400 C 21.420 292.400,21.600 292.760,21.600 293.200 C 21.600 293.640,21.780 294.000,22.000 294.000 C 22.220 294.000,22.400 294.320,22.400 294.712 C 22.400 295.103,22.760 295.683,23.200 296.000 C 23.640 296.317,24.000 296.897,24.000 297.288 C 24.000 297.680,24.270 298.000,24.600 298.000 C 24.933 298.000,25.200 298.356,25.200 298.800 C 25.200 299.240,25.380 299.600,25.600 299.600 C 25.820 299.600,26.000 300.010,26.000 300.512 C 26.000 301.013,26.360 301.683,26.800 302.000 C 27.240 302.317,27.600 302.897,27.600 303.288 C 27.600 303.680,27.780 304.000,28.000 304.000 C 28.220 304.000,28.400 304.320,28.400 304.712 C 28.400 305.103,28.760 305.683,29.200 306.000 C 29.640 306.317,30.000 306.857,30.000 307.200 C 30.000 307.543,30.360 308.083,30.800 308.400 C 31.240 308.717,31.600 309.297,31.600 309.688 C 31.600 310.080,31.780 310.400,32.000 310.400 C 32.220 310.400,32.400 310.720,32.400 311.112 C 32.400 311.503,32.760 312.083,33.200 312.400 C 33.640 312.717,34.000 313.225,34.000 313.528 C 34.000 313.831,34.540 314.583,35.200 315.200 C 35.860 315.817,36.400 316.609,36.400 316.960 C 36.400 317.312,36.580 317.600,36.800 317.600 C 37.020 317.600,37.200 317.870,37.200 318.200 C 37.200 318.530,37.380 318.800,37.600 318.800 C 37.820 318.800,38.000 319.117,38.000 319.505 C 38.000 319.893,38.405 320.395,38.900 320.620 C 39.395 320.845,39.740 321.293,39.667 321.615 C 39.593 321.937,39.667 322.067,39.830 321.903 C 40.272 321.461,41.200 322.385,41.200 323.267 C 41.200 324.080,42.873 326.000,43.582 326.000 C 43.812 326.000,44.000 326.280,44.000 326.622 C 44.000 326.964,45.080 328.304,46.400 329.600 C 47.720 330.896,48.800 332.160,48.800 332.409 C 48.800 332.659,49.520 333.554,50.400 334.400 C 51.280 335.246,52.000 336.043,52.000 336.173 C 52.000 336.473,61.115 345.600,61.415 345.600 C 61.538 345.600,62.881 346.860,64.400 348.400 C 65.919 349.940,67.356 351.200,67.594 351.200 C 68.038 351.200,70.800 353.789,70.800 354.205 C 70.800 354.702,72.797 356.400,73.382 356.400 C 73.722 356.400,74.000 356.537,74.000 356.705 C 74.000 356.873,74.405 357.195,74.900 357.420 C 75.395 357.645,75.751 358.061,75.690 358.344 C 75.630 358.628,75.754 358.752,75.967 358.620 C 76.180 358.489,76.989 359.015,77.764 359.791 C 78.539 360.566,79.359 361.200,79.587 361.200 C 79.814 361.200,80.000 361.380,80.000 361.600 C 80.000 361.820,80.320 362.000,80.712 362.000 C 81.103 362.000,81.683 362.360,82.000 362.800 C 82.317 363.240,82.857 363.600,83.200 363.600 C 83.543 363.600,84.083 363.960,84.400 364.400 C 84.717 364.840,85.225 365.200,85.528 365.200 C 85.831 365.200,86.583 365.740,87.200 366.400 C 87.817 367.060,88.609 367.600,88.960 367.600 C 89.312 367.600,89.600 367.780,89.600 368.000 C 89.600 368.220,89.920 368.400,90.312 368.400 C 90.703 368.400,91.283 368.760,91.600 369.200 C 91.917 369.640,92.457 370.000,92.800 370.000 C 93.143 370.000,93.683 370.360,94.000 370.800 C 94.317 371.240,94.897 371.600,95.288 371.600 C 95.680 371.600,96.000 371.780,96.000 372.000 C 96.000 372.220,96.450 372.400,97.000 372.400 C 97.550 372.400,98.000 372.593,98.000 372.829 C 98.000 373.466,99.053 374.400,99.771 374.400 C 100.117 374.400,100.400 374.580,100.400 374.800 C 100.400 375.020,100.760 375.200,101.200 375.200 C 101.640 375.200,102.000 375.380,102.000 375.600 C 102.000 375.820,102.320 376.000,102.712 376.000 C 103.103 376.000,103.683 376.360,104.000 376.800 C 104.317 377.240,104.897 377.600,105.288 377.600 C 105.680 377.600,106.000 377.780,106.000 378.000 C 106.000 378.220,106.360 378.400,106.800 378.400 C 107.240 378.400,107.600 378.580,107.600 378.800 C 107.600 379.020,107.960 379.200,108.400 379.200 C 108.840 379.200,109.200 379.380,109.200 379.600 C 109.200 379.820,109.560 380.000,110.000 380.000 C 110.440 380.000,110.800 380.180,110.800 380.400 C 110.800 380.620,111.160 380.800,111.600 380.800 C 112.040 380.800,112.400 380.980,112.400 381.200 C 112.400 381.420,112.760 381.600,113.200 381.600 C 113.640 381.600,114.000 381.780,114.000 382.000 C 114.000 382.220,114.630 382.400,115.400 382.400 C 116.170 382.400,116.800 382.580,116.800 382.800 C 116.800 383.020,117.160 383.200,117.600 383.200 C 118.040 383.200,118.400 383.380,118.400 383.600 C 118.400 383.820,118.760 384.000,119.200 384.000 C 119.640 384.000,120.000 384.180,120.000 384.400 C 120.000 384.620,120.360 384.800,120.800 384.800 C 121.240 384.800,121.600 384.980,121.600 385.200 C 121.600 385.420,122.140 385.600,122.800 385.600 C 123.460 385.600,124.000 385.780,124.000 386.000 C 124.000 386.220,124.360 386.400,124.800 386.400 C 125.240 386.400,125.600 386.580,125.600 386.800 C 125.600 387.020,126.140 387.200,126.800 387.200 C 127.460 387.200,128.000 387.380,128.000 387.600 C 128.000 387.820,128.540 388.000,129.200 388.000 C 129.860 388.000,130.400 388.180,130.400 388.400 C 130.400 388.620,130.760 388.800,131.200 388.800 C 131.640 388.800,132.000 388.980,132.000 389.200 C 132.000 389.420,132.630 389.600,133.400 389.600 C 134.170 389.600,134.800 389.780,134.800 390.000 C 134.800 390.220,135.340 390.400,136.000 390.400 C 136.800 390.400,137.200 390.600,137.200 391.000 C 137.200 391.400,137.600 391.600,138.400 391.600 C 139.060 391.600,139.600 391.780,139.600 392.000 C 139.600 392.220,140.320 392.400,141.200 392.400 C 142.080 392.400,142.800 392.580,142.800 392.800 C 142.800 393.020,143.340 393.200,144.000 393.200 C 144.660 393.200,145.200 393.380,145.200 393.600 C 145.200 393.820,146.021 394.000,147.024 394.000 C 148.027 394.000,148.758 394.144,148.649 394.320 C 148.541 394.496,149.110 394.684,149.914 394.738 C 150.718 394.793,151.471 394.970,151.588 395.133 C 151.705 395.296,152.520 395.484,153.400 395.550 C 154.280 395.617,155.060 395.835,155.133 396.036 C 155.207 396.236,156.152 396.400,157.233 396.400 C 158.315 396.400,159.200 396.580,159.200 396.800 C 159.200 397.020,160.100 397.200,161.200 397.200 C 162.300 397.200,163.200 397.380,163.200 397.600 C 163.200 397.822,164.267 398.000,165.600 398.000 C 166.933 398.000,168.000 398.178,168.000 398.400 C 168.000 398.631,169.256 398.800,170.967 398.800 C 172.984 398.800,173.987 398.960,174.100 399.300 C 174.231 399.693,179.769 399.800,200.000 399.800 C 220.231 399.800,225.769 399.693,225.900 399.300 C 226.013 398.960,227.016 398.800,229.033 398.800 C 230.744 398.800,232.000 398.631,232.000 398.400 C 232.000 398.180,232.979 398.000,234.176 398.000 C 235.373 398.000,236.464 397.820,236.600 397.600 C 236.736 397.380,237.636 397.200,238.600 397.200 C 239.564 397.200,240.464 397.020,240.600 396.800 C 240.736 396.580,241.722 396.400,242.790 396.400 C 243.859 396.400,244.793 396.229,244.867 396.020 C 244.940 395.811,245.754 395.597,246.676 395.543 C 247.598 395.490,248.262 395.301,248.153 395.123 C 248.043 394.945,248.773 394.800,249.776 394.800 C 250.779 394.800,251.600 394.620,251.600 394.400 C 251.600 394.180,252.140 394.000,252.800 394.000 C 253.460 394.000,254.000 393.820,254.000 393.600 C 254.000 393.380,254.720 393.200,255.600 393.200 C 256.480 393.200,257.200 393.020,257.200 392.800 C 257.200 392.580,257.740 392.400,258.400 392.400 C 259.060 392.400,259.600 392.220,259.600 392.000 C 259.600 391.780,260.320 391.600,261.200 391.600 C 262.356 391.600,262.800 391.433,262.800 391.000 C 262.800 390.581,263.222 390.400,264.200 390.400 C 264.970 390.400,265.600 390.220,265.600 390.000 C 265.600 389.780,266.140 389.600,266.800 389.600 C 267.460 389.600,268.000 389.780,268.000 390.000 C 268.000 390.220,268.360 390.400,268.800 390.400 C 269.244 390.400,269.600 390.667,269.600 391.000 C 269.600 391.333,269.956 391.600,270.400 391.600 C 270.840 391.600,271.200 391.780,271.200 392.000 C 271.200 392.220,271.560 392.400,272.000 392.400 C 272.440 392.400,272.800 392.580,272.800 392.800 C 272.800 393.020,273.160 393.200,273.600 393.200 C 274.040 393.200,274.400 393.380,274.400 393.600 C 274.400 393.820,274.535 393.979,274.700 393.953 C 275.517 393.824,276.425 394.036,276.252 394.315 C 276.145 394.488,276.530 394.669,277.106 394.717 C 277.683 394.765,278.255 394.939,278.378 395.103 C 278.500 395.268,279.140 395.464,279.800 395.539 C 280.460 395.614,281.060 395.839,281.133 396.038 C 281.207 396.237,281.792 396.400,282.433 396.400 C 283.075 396.400,283.600 396.580,283.600 396.800 C 283.600 397.020,284.140 397.200,284.800 397.200 C 285.460 397.200,286.000 397.380,286.000 397.600 C 286.000 397.820,286.720 398.000,287.600 398.000 C 288.480 398.000,289.200 398.180,289.200 398.400 C 289.200 398.620,290.085 398.800,291.167 398.800 C 292.384 398.800,293.197 398.990,293.300 399.300 C 293.430 399.690,297.232 399.800,310.513 399.800 C 323.617 399.800,327.676 399.684,328.060 399.300 C 328.335 399.025,329.244 398.800,330.080 398.800 C 330.916 398.800,331.600 398.620,331.600 398.400 C 331.600 398.180,332.320 398.000,333.200 398.000 C 334.080 398.000,334.800 397.820,334.800 397.600 C 334.800 397.380,335.610 397.200,336.600 397.200 C 337.590 397.200,338.400 397.020,338.400 396.800 C 338.400 396.580,338.940 396.400,339.600 396.400 C 340.260 396.400,340.800 396.220,340.800 396.000 C 340.800 395.780,341.160 395.600,341.600 395.600 C 342.040 395.600,342.400 395.420,342.400 395.200 C 342.400 394.980,342.940 394.800,343.600 394.800 C 344.260 394.800,344.800 394.620,344.800 394.400 C 344.800 394.180,345.160 394.000,345.600 394.000 C 346.040 394.000,346.400 393.820,346.400 393.600 C 346.400 393.380,346.760 393.200,347.200 393.200 C 347.640 393.200,348.000 393.020,348.000 392.800 C 348.000 392.580,348.540 392.400,349.200 392.400 C 349.860 392.400,350.400 392.220,350.400 392.000 C 350.400 391.780,350.760 391.600,351.200 391.600 C 351.640 391.600,352.000 391.407,352.000 391.171 C 352.000 390.466,353.086 389.600,353.971 389.600 C 354.427 389.600,354.800 389.420,354.800 389.200 C 354.800 388.980,355.160 388.800,355.600 388.800 C 356.040 388.800,356.400 388.620,356.400 388.400 C 356.400 388.180,356.720 388.000,357.112 388.000 C 357.503 388.000,358.083 387.640,358.400 387.200 C 358.717 386.760,359.179 386.400,359.426 386.400 C 359.674 386.400,360.202 386.040,360.600 385.600 C 360.998 385.160,361.565 384.800,361.859 384.800 C 362.153 384.800,362.909 384.260,363.540 383.600 C 364.171 382.940,364.906 382.400,365.175 382.400 C 365.443 382.400,366.354 381.680,367.200 380.800 C 368.046 379.920,368.949 379.200,369.208 379.200 C 369.467 379.200,370.471 378.361,371.440 377.336 C 372.408 376.311,373.203 375.636,373.206 375.836 C 373.209 376.036,373.449 375.750,373.739 375.200 C 374.028 374.650,374.489 374.249,374.762 374.310 C 375.036 374.370,375.145 374.235,375.006 374.010 C 374.867 373.784,375.033 373.600,375.376 373.600 C 375.719 373.600,375.955 373.448,375.900 373.261 C 375.845 373.075,376.385 372.373,377.100 371.701 C 377.815 371.029,378.400 370.270,378.400 370.014 C 378.400 369.758,379.300 368.671,380.400 367.600 C 381.500 366.529,382.400 365.370,382.400 365.026 C 382.400 364.682,382.550 364.400,382.732 364.400 C 382.915 364.400,383.320 363.905,383.632 363.300 C 383.945 362.695,384.694 361.660,385.298 361.000 C 385.902 360.340,386.397 359.575,386.398 359.300 C 386.399 359.025,386.580 358.800,386.800 358.800 C 387.020 358.800,387.200 358.480,387.200 358.088 C 387.200 357.697,387.560 357.117,388.000 356.800 C 388.440 356.483,388.800 355.903,388.800 355.512 C 388.800 355.120,388.980 354.800,389.200 354.800 C 389.420 354.800,389.600 354.350,389.600 353.800 C 389.600 353.250,389.780 352.800,390.000 352.800 C 390.220 352.800,390.400 352.440,390.400 352.000 C 390.400 351.556,390.667 351.200,391.000 351.200 C 391.333 351.200,391.600 350.844,391.600 350.400 C 391.600 349.960,391.780 349.600,392.000 349.600 C 392.220 349.600,392.400 349.240,392.400 348.800 C 392.400 348.360,392.580 348.000,392.800 348.000 C 393.020 348.000,393.200 347.640,393.200 347.200 C 393.200 346.760,393.380 346.400,393.600 346.400 C 393.820 346.400,394.000 345.860,394.000 345.200 C 394.000 344.540,394.180 344.000,394.400 344.000 C 394.620 344.000,394.800 343.640,394.800 343.200 C 394.800 342.760,394.980 342.400,395.200 342.400 C 395.420 342.400,395.600 341.860,395.600 341.200 C 395.600 340.540,395.780 340.000,396.000 340.000 C 396.220 340.000,396.400 339.460,396.400 338.800 C 396.400 338.140,396.580 337.600,396.800 337.600 C 397.020 337.600,397.200 336.790,397.200 335.800 C 397.200 334.810,397.380 334.000,397.600 334.000 C 397.820 334.000,398.000 333.460,398.000 332.800 C 398.000 332.140,398.180 331.600,398.400 331.600 C 398.620 331.600,398.800 330.736,398.800 329.680 C 398.800 328.624,399.025 327.535,399.300 327.260 C 399.684 326.876,399.800 322.817,399.800 309.713 C 399.800 296.431,399.690 292.630,399.300 292.500 C 399.002 292.401,398.800 291.629,398.800 290.590 C 398.800 289.632,398.620 288.736,398.400 288.600 C 398.180 288.464,398.000 287.643,398.000 286.776 C 398.000 285.909,397.820 285.200,397.600 285.200 C 397.380 285.200,397.200 284.660,397.200 284.000 C 397.200 283.340,397.020 282.800,396.800 282.800 C 396.580 282.800,396.400 282.275,396.400 281.633 C 396.400 280.992,396.237 280.407,396.038 280.333 C 395.839 280.260,395.614 279.660,395.539 279.000 C 395.464 278.340,395.268 277.700,395.103 277.578 C 394.939 277.455,394.765 276.883,394.717 276.306 C 394.669 275.730,394.488 275.345,394.315 275.452 C 394.142 275.560,394.000 275.187,394.000 274.624 C 394.000 274.061,393.820 273.600,393.600 273.600 C 393.380 273.600,393.200 273.240,393.200 272.800 C 393.200 272.360,393.020 272.000,392.800 272.000 C 392.580 272.000,392.400 271.640,392.400 271.200 C 392.400 270.760,392.220 270.400,392.000 270.400 C 391.780 270.400,391.600 270.040,391.600 269.600 C 391.600 269.156,391.333 268.800,391.000 268.800 C 390.670 268.800,390.400 268.455,390.400 268.033 C 390.400 267.612,390.175 267.162,389.900 267.033 C 389.500 266.847,389.500 266.753,389.900 266.567 C 390.175 266.438,390.400 265.803,390.400 265.154 C 390.400 264.475,390.654 263.877,391.000 263.745 C 391.391 263.595,391.600 262.972,391.600 261.957 C 391.600 261.101,391.780 260.400,392.000 260.400 C 392.220 260.400,392.400 259.860,392.400 259.200 C 392.400 258.540,392.580 258.000,392.800 258.000 C 393.020 258.000,393.200 257.280,393.200 256.400 C 393.200 255.520,393.380 254.800,393.600 254.800 C 393.820 254.800,394.000 254.080,394.000 253.200 C 394.000 252.320,394.180 251.600,394.400 251.600 C 394.620 251.600,394.800 250.779,394.800 249.776 C 394.800 248.773,394.948 248.044,395.129 248.156 C 395.311 248.268,395.501 247.424,395.552 246.280 C 395.603 245.136,395.814 244.140,396.022 244.067 C 396.230 243.993,396.400 243.059,396.400 241.990 C 396.400 240.922,396.580 239.936,396.800 239.800 C 397.020 239.664,397.200 238.753,397.200 237.776 C 397.200 236.799,397.380 236.000,397.600 236.000 C 397.822 236.000,398.000 234.933,398.000 233.600 C 398.000 232.267,398.178 231.200,398.400 231.200 C 398.631 231.200,398.800 229.944,398.800 228.233 C 398.800 226.216,398.960 225.213,399.300 225.100 C 399.693 224.969,399.800 219.511,399.800 199.600 C 399.800 179.689,399.693 174.231,399.300 174.100 C 398.960 173.987,398.800 172.984,398.800 170.967 C 398.800 169.256,398.631 168.000,398.400 168.000 C 398.178 168.000,398.000 166.933,398.000 165.600 C 398.000 164.267,397.822 163.200,397.600 163.200 C 397.380 163.200,397.200 162.300,397.200 161.200 C 397.200 160.100,397.020 159.200,396.800 159.200 C 396.580 159.200,396.400 158.315,396.400 157.233 C 396.400 156.152,396.236 155.207,396.036 155.133 C 395.835 155.060,395.617 154.280,395.550 153.400 C 395.484 152.520,395.296 151.705,395.133 151.588 C 394.970 151.471,394.793 150.718,394.738 149.914 C 394.684 149.110,394.496 148.541,394.320 148.649 C 394.144 148.758,394.000 148.027,394.000 147.024 C 394.000 146.021,393.820 145.200,393.600 145.200 C 393.380 145.200,393.200 144.660,393.200 144.000 C 393.200 143.340,393.020 142.800,392.800 142.800 C 392.580 142.800,392.400 142.080,392.400 141.200 C 392.400 140.320,392.220 139.600,392.000 139.600 C 391.780 139.600,391.600 139.060,391.600 138.400 C 391.600 137.600,391.400 137.200,391.000 137.200 C 390.600 137.200,390.400 136.800,390.400 136.000 C 390.400 135.340,390.220 134.800,390.000 134.800 C 389.780 134.800,389.600 134.170,389.600 133.400 C 389.600 132.630,389.420 132.000,389.200 132.000 C 388.980 132.000,388.800 131.460,388.800 130.800 C 388.800 130.140,388.620 129.600,388.400 129.600 C 388.180 129.600,388.000 129.240,388.000 128.800 C 388.000 128.360,387.820 128.000,387.600 128.000 C 387.380 128.000,387.200 127.460,387.200 126.800 C 387.200 126.140,387.020 125.600,386.800 125.600 C 386.580 125.600,386.400 125.240,386.400 124.800 C 386.400 124.360,386.220 124.000,386.000 124.000 C 385.780 124.000,385.600 123.460,385.600 122.800 C 385.600 122.140,385.420 121.600,385.200 121.600 C 384.980 121.600,384.800 121.240,384.800 120.800 C 384.800 120.360,384.620 120.000,384.400 120.000 C 384.180 120.000,384.000 119.640,384.000 119.200 C 384.000 118.760,383.820 118.400,383.600 118.400 C 383.380 118.400,383.200 118.040,383.200 117.600 C 383.200 117.160,383.020 116.800,382.800 116.800 C 382.580 116.800,382.400 116.170,382.400 115.400 C 382.400 114.630,382.220 114.000,382.000 114.000 C 381.780 114.000,381.600 113.640,381.600 113.200 C 381.600 112.760,381.420 112.400,381.200 112.400 C 380.980 112.400,380.800 112.040,380.800 111.600 C 380.800 111.160,380.620 110.800,380.400 110.800 C 380.180 110.800,380.000 110.440,380.000 110.000 C 380.000 109.560,379.820 109.200,379.600 109.200 C 379.380 109.200,379.200 108.840,379.200 108.400 C 379.200 107.960,379.020 107.600,378.800 107.600 C 378.580 107.600,378.400 107.240,378.400 106.800 C 378.400 106.360,378.220 106.000,378.000 106.000 C 377.780 106.000,377.600 105.680,377.600 105.288 C 377.600 104.897,377.240 104.317,376.800 104.000 C 376.360 103.683,376.000 103.103,376.000 102.712 C 376.000 102.320,375.820 102.000,375.600 102.000 C 375.380 102.000,375.200 101.640,375.200 101.200 C 375.200 100.760,375.020 100.400,374.800 100.400 C 374.580 100.400,374.400 100.117,374.400 99.771 C 374.400 99.053,373.466 98.000,372.829 98.000 C 372.593 98.000,372.400 97.550,372.400 97.000 C 372.400 96.450,372.220 96.000,372.000 96.000 C 371.780 96.000,371.600 95.680,371.600 95.288 C 371.600 94.897,371.240 94.317,370.800 94.000 C 370.360 93.683,370.000 93.143,370.000 92.800 C 370.000 92.457,369.640 91.917,369.200 91.600 C 368.760 91.283,368.400 90.703,368.400 90.312 C 368.400 89.920,368.220 89.600,368.000 89.600 C 367.780 89.600,367.600 89.280,367.600 88.888 C 367.600 88.497,367.240 87.917,366.800 87.600 C 366.360 87.283,366.000 86.775,366.000 86.472 C 366.000 86.169,365.460 85.417,364.800 84.800 C 364.140 84.183,363.600 83.431,363.600 83.128 C 363.600 82.825,363.240 82.317,362.800 82.000 C 362.360 81.683,362.000 81.103,362.000 80.712 C 362.000 80.320,361.820 80.000,361.600 80.000 C 361.380 80.000,361.200 79.814,361.200 79.587 C 361.200 79.359,360.566 78.539,359.791 77.764 C 359.015 76.989,358.489 76.180,358.620 75.967 C 358.752 75.754,358.711 75.630,358.530 75.690 C 358.348 75.751,358.167 75.651,358.126 75.470 C 358.086 75.288,357.681 74.817,357.226 74.423 C 356.772 74.029,356.400 73.494,356.400 73.235 C 356.400 72.759,354.634 70.800,354.205 70.800 C 353.789 70.800,351.200 68.038,351.200 67.594 C 351.200 67.356,349.940 65.919,348.400 64.400 C 346.860 62.881,345.600 61.538,345.600 61.415 C 345.600 61.115,336.473 52.000,336.173 52.000 C 336.043 52.000,335.246 51.280,334.400 50.400 C 333.554 49.520,332.659 48.800,332.409 48.800 C 332.160 48.800,330.896 47.720,329.600 46.400 C 328.304 45.080,326.964 44.000,326.622 44.000 C 326.280 44.000,326.000 43.812,326.000 43.582 C 326.000 42.873,324.080 41.200,323.267 41.200 C 322.385 41.200,321.461 40.272,321.903 39.830 C 322.067 39.667,321.937 39.593,321.615 39.667 C 321.293 39.740,320.845 39.395,320.620 38.900 C 320.395 38.405,319.893 38.000,319.505 38.000 C 319.117 38.000,318.800 37.820,318.800 37.600 C 318.800 37.380,318.530 37.200,318.200 37.200 C 317.870 37.200,317.600 37.020,317.600 36.800 C 317.600 36.580,317.312 36.400,316.960 36.400 C 316.609 36.400,315.817 35.860,315.200 35.200 C 314.583 34.540,313.831 34.000,313.528 34.000 C 313.225 34.000,312.717 33.640,312.400 33.200 C 312.083 32.760,311.543 32.400,311.200 32.400 C 310.857 32.400,310.317 32.040,310.000 31.600 C 309.683 31.160,309.103 30.800,308.712 30.800 C 308.320 30.800,308.000 30.620,308.000 30.400 C 308.000 30.180,307.680 30.000,307.288 30.000 C 306.897 30.000,306.317 29.640,306.000 29.200 C 305.683 28.760,305.103 28.400,304.712 28.400 C 304.320 28.400,304.000 28.220,304.000 28.000 C 304.000 27.780,303.680 27.600,303.288 27.600 C 302.897 27.600,302.317 27.240,302.000 26.800 C 301.683 26.360,301.013 26.000,300.512 26.000 C 299.968 26.000,299.600 25.758,299.600 25.400 C 299.600 25.067,299.244 24.800,298.800 24.800 C 298.360 24.800,298.000 24.620,298.000 24.400 C 298.000 24.180,297.680 24.000,297.288 24.000 C 296.897 24.000,296.317 23.640,296.000 23.200 C 295.683 22.760,295.103 22.400,294.712 22.400 C 294.320 22.400,294.000 22.220,294.000 22.000 C 294.000 21.780,293.640 21.600,293.200 21.600 C 292.760 21.600,292.400 21.420,292.400 21.200 C 292.400 20.980,292.040 20.800,291.600 20.800 C 291.160 20.800,290.800 20.620,290.800 20.400 C 290.800 20.180,290.440 20.000,290.000 20.000 C 289.560 20.000,289.200 19.820,289.200 19.600 C 289.200 19.380,288.966 19.200,288.680 19.200 C 287.944 19.200,286.007 18.259,286.003 17.900 C 286.001 17.735,285.460 17.600,284.800 17.600 C 284.140 17.600,283.600 17.420,283.600 17.200 C 283.600 16.980,283.150 16.800,282.600 16.800 C 282.050 16.800,281.600 16.620,281.600 16.400 C 281.600 16.180,281.240 16.000,280.800 16.000 C 280.360 16.000,280.000 15.820,280.000 15.600 C 280.000 15.380,279.640 15.200,279.200 15.200 C 278.760 15.200,278.400 15.020,278.400 14.800 C 278.400 14.580,277.860 14.400,277.200 14.400 C 276.540 14.400,276.000 14.220,276.000 14.000 C 276.000 13.780,275.640 13.600,275.200 13.600 C 274.760 13.600,274.400 13.420,274.400 13.200 C 274.400 12.980,273.860 12.800,273.200 12.800 C 272.540 12.800,272.000 12.620,272.000 12.400 C 272.000 12.180,271.651 12.000,271.224 12.000 C 270.797 12.000,270.336 11.820,270.200 11.600 C 270.064 11.380,269.513 11.200,268.976 11.200 C 268.439 11.200,268.000 11.020,268.000 10.800 C 268.000 10.580,267.460 10.400,266.800 10.400 C 266.140 10.400,265.600 10.220,265.600 10.000 C 265.600 9.780,264.970 9.600,264.200 9.600 C 263.430 9.600,262.800 9.420,262.800 9.200 C 262.800 8.980,262.260 8.800,261.600 8.800 C 260.940 8.800,260.400 8.620,260.400 8.400 C 260.400 8.180,259.680 8.000,258.800 8.000 C 257.920 8.000,257.200 7.820,257.200 7.600 C 257.200 7.380,256.660 7.200,256.000 7.200 C 255.200 7.200,254.800 7.000,254.800 6.600 C 254.800 6.167,254.356 6.000,253.200 6.000 C 252.320 6.000,251.600 5.820,251.600 5.600 C 251.600 5.380,250.779 5.200,249.776 5.200 C 248.663 5.200,248.049 5.044,248.200 4.800 C 248.351 4.556,247.737 4.400,246.624 4.400 C 245.621 4.400,244.800 4.220,244.800 4.000 C 244.800 3.780,243.900 3.600,242.800 3.600 C 241.700 3.600,240.800 3.420,240.800 3.200 C 240.800 2.980,239.900 2.800,238.800 2.800 C 237.700 2.800,236.800 2.620,236.800 2.400 C 236.800 2.178,235.733 2.000,234.400 2.000 C 233.067 2.000,232.000 1.822,232.000 1.600 C 232.000 1.369,230.744 1.200,229.033 1.200 C 227.050 1.200,226.013 1.038,225.904 0.711 C 225.742 0.227,187.143 -0.122,177.700 0.275 M207.600 38.400 C 207.600 38.646,209.592 38.800,212.776 38.800 C 215.796 38.800,218.056 38.967,218.200 39.200 C 218.336 39.420,219.787 39.600,221.424 39.600 C 223.141 39.600,224.400 39.769,224.400 40.000 C 224.400 40.226,225.533 40.400,227.000 40.400 C 228.467 40.400,229.600 40.574,229.600 40.800 C 229.600 41.020,230.500 41.200,231.600 41.200 C 232.700 41.200,233.600 41.380,233.600 41.600 C 233.600 41.820,234.320 42.000,235.200 42.000 C 236.080 42.000,236.800 42.180,236.800 42.400 C 236.800 42.620,237.700 42.800,238.800 42.800 C 239.900 42.800,240.800 42.980,240.800 43.200 C 240.800 43.420,241.430 43.600,242.200 43.600 C 242.970 43.600,243.600 43.780,243.600 44.000 C 243.600 44.220,244.320 44.400,245.200 44.400 C 246.080 44.400,246.800 44.580,246.800 44.800 C 246.800 45.020,247.340 45.200,248.000 45.200 C 248.800 45.200,249.200 45.400,249.200 45.800 C 249.200 46.200,249.600 46.400,250.400 46.400 C 251.060 46.400,251.600 46.580,251.600 46.800 C 251.600 47.020,252.140 47.200,252.800 47.200 C 253.460 47.200,254.000 47.380,254.000 47.600 C 254.000 47.820,254.540 48.000,255.200 48.000 C 255.860 48.000,256.400 48.180,256.400 48.400 C 256.400 48.620,256.535 48.779,256.700 48.753 C 257.856 48.570,259.177 48.919,259.908 49.600 C 260.380 50.040,261.314 50.400,261.983 50.400 C 262.652 50.400,263.200 50.580,263.200 50.800 C 263.200 51.020,263.560 51.200,264.000 51.200 C 264.440 51.200,264.800 51.380,264.800 51.600 C 264.800 51.820,265.160 52.000,265.600 52.000 C 266.040 52.000,266.400 52.180,266.400 52.400 C 266.400 52.620,266.749 52.800,267.176 52.800 C 267.603 52.800,268.064 52.980,268.200 53.200 C 268.336 53.420,268.887 53.600,269.424 53.600 C 269.961 53.600,270.400 53.780,270.400 54.000 C 270.400 54.220,270.634 54.400,270.920 54.400 C 271.656 54.400,273.593 55.341,273.597 55.700 C 273.599 55.865,273.960 56.000,274.400 56.000 C 274.840 56.000,275.200 56.180,275.200 56.400 C 275.200 56.620,275.560 56.800,276.000 56.800 C 276.440 56.800,276.800 56.980,276.800 57.200 C 276.800 57.420,277.120 57.600,277.512 57.600 C 277.903 57.600,278.483 57.960,278.800 58.400 C 279.117 58.840,279.787 59.200,280.288 59.200 C 280.790 59.200,281.200 59.380,281.200 59.600 C 281.200 59.820,281.520 60.000,281.912 60.000 C 282.303 60.000,282.883 60.360,283.200 60.800 C 283.517 61.240,284.097 61.600,284.488 61.600 C 284.880 61.600,285.200 61.780,285.200 62.000 C 285.200 62.220,285.483 62.400,285.829 62.400 C 286.547 62.400,287.600 63.334,287.600 63.971 C 287.600 64.207,287.920 64.400,288.312 64.400 C 288.703 64.400,289.283 64.760,289.600 65.200 C 289.917 65.640,290.457 66.000,290.800 66.000 C 291.143 66.000,291.683 66.360,292.000 66.800 C 292.317 67.240,293.017 67.600,293.555 67.600 C 294.093 67.600,294.422 67.711,294.286 67.848 C 293.953 68.181,295.006 69.200,295.683 69.200 C 295.980 69.200,296.483 69.560,296.800 70.000 C 297.117 70.440,297.607 70.800,297.888 70.800 C 298.170 70.800,298.400 70.980,298.400 71.200 C 298.400 71.420,298.684 71.600,299.031 71.600 C 299.379 71.600,300.354 72.320,301.200 73.200 C 302.046 74.080,302.941 74.800,303.191 74.800 C 303.440 74.800,304.704 75.880,306.000 77.200 C 307.296 78.520,308.554 79.600,308.796 79.600 C 309.356 79.600,311.200 81.427,311.200 81.982 C 311.200 82.212,311.481 82.400,311.824 82.400 C 312.167 82.400,312.336 82.580,312.200 82.800 C 312.064 83.020,312.263 83.200,312.643 83.200 C 313.023 83.200,313.224 83.309,313.091 83.443 C 312.774 83.760,313.709 84.771,314.100 84.534 C 314.265 84.435,314.400 84.644,314.400 85.000 C 314.400 85.356,314.580 85.536,314.800 85.400 C 315.020 85.264,315.200 85.433,315.200 85.776 C 315.200 86.119,315.337 86.355,315.505 86.300 C 315.915 86.166,322.000 92.271,322.000 92.816 C 322.000 93.051,323.080 94.304,324.400 95.600 C 325.720 96.896,326.800 98.236,326.800 98.578 C 326.800 98.920,326.980 99.200,327.200 99.200 C 327.420 99.200,327.600 99.386,327.600 99.613 C 327.600 99.841,328.234 100.661,329.009 101.436 C 329.785 102.211,330.311 103.020,330.180 103.233 C 330.048 103.446,330.172 103.570,330.456 103.510 C 330.739 103.449,331.155 103.805,331.380 104.300 C 331.605 104.795,331.927 105.200,332.095 105.200 C 332.263 105.200,332.400 105.483,332.400 105.829 C 332.400 106.547,333.334 107.600,333.971 107.600 C 334.207 107.600,334.400 107.920,334.400 108.312 C 334.400 108.703,334.760 109.283,335.200 109.600 C 335.640 109.917,336.000 110.457,336.000 110.800 C 336.000 111.143,336.360 111.683,336.800 112.000 C 337.240 112.317,337.600 112.857,337.600 113.200 C 337.600 113.543,337.960 114.083,338.400 114.400 C 338.840 114.717,339.200 115.257,339.200 115.600 C 339.200 115.943,339.560 116.483,340.000 116.800 C 340.440 117.117,340.800 117.787,340.800 118.288 C 340.800 118.790,340.980 119.200,341.200 119.200 C 341.420 119.200,341.600 119.560,341.600 120.000 C 341.600 120.440,341.780 120.800,342.000 120.800 C 342.220 120.800,342.400 121.120,342.400 121.512 C 342.400 121.903,342.760 122.483,343.200 122.800 C 343.640 123.117,344.000 123.697,344.000 124.088 C 344.000 124.480,344.180 124.800,344.400 124.800 C 344.620 124.800,344.800 125.160,344.800 125.600 C 344.800 126.040,344.980 126.400,345.200 126.400 C 345.420 126.400,345.600 126.760,345.600 127.200 C 345.600 127.640,345.780 128.000,346.000 128.000 C 346.220 128.000,346.400 128.360,346.400 128.800 C 346.400 129.240,346.535 129.601,346.700 129.603 C 347.059 129.607,348.000 131.544,348.000 132.280 C 348.000 132.566,348.180 132.800,348.400 132.800 C 348.620 132.800,348.800 133.325,348.800 133.967 C 348.800 134.608,348.988 135.196,349.218 135.273 C 349.448 135.349,349.665 135.806,349.702 136.289 C 349.738 136.771,349.847 137.086,349.944 136.989 C 350.280 136.654,351.200 138.894,351.200 140.046 C 351.200 140.681,351.380 141.200,351.600 141.200 C 351.820 141.200,352.000 141.560,352.000 142.000 C 352.000 142.444,352.267 142.800,352.600 142.800 C 353.000 142.800,353.200 143.200,353.200 144.000 C 353.200 144.660,353.380 145.200,353.600 145.200 C 353.820 145.200,354.000 145.740,354.000 146.400 C 354.000 147.060,354.180 147.600,354.400 147.600 C 354.620 147.600,354.800 148.140,354.800 148.800 C 354.800 149.460,354.980 150.000,355.200 150.000 C 355.420 150.000,355.600 150.540,355.600 151.200 C 355.600 151.860,355.780 152.400,356.000 152.400 C 356.220 152.400,356.400 153.030,356.400 153.800 C 356.400 154.570,356.580 155.200,356.800 155.200 C 357.020 155.200,357.200 155.740,357.200 156.400 C 357.200 157.060,357.380 157.600,357.600 157.600 C 357.820 157.600,358.000 158.219,358.000 158.976 C 358.000 159.733,358.180 160.464,358.400 160.600 C 358.620 160.736,358.800 161.557,358.800 162.424 C 358.800 163.291,358.980 164.000,359.200 164.000 C 359.420 164.000,359.600 164.900,359.600 166.000 C 359.600 167.100,359.780 168.000,360.000 168.000 C 360.220 168.000,360.400 168.900,360.400 170.000 C 360.400 171.100,360.580 172.000,360.800 172.000 C 361.020 172.000,361.200 172.990,361.200 174.200 C 361.200 175.410,361.380 176.400,361.600 176.400 C 361.831 176.400,362.000 177.659,362.000 179.376 C 362.000 181.013,362.180 182.464,362.400 182.600 C 362.632 182.743,362.800 184.937,362.800 187.824 C 362.800 190.875,362.955 192.800,363.200 192.800 C 363.454 192.800,363.600 195.800,363.600 201.000 C 363.600 206.200,363.454 209.200,363.200 209.200 C 362.958 209.200,362.800 210.933,362.800 213.600 C 362.800 216.267,362.642 218.000,362.400 218.000 C 362.171 218.000,362.000 219.200,362.000 220.800 C 362.000 222.400,361.829 223.600,361.600 223.600 C 361.374 223.600,361.200 224.733,361.200 226.200 C 361.200 227.667,361.026 228.800,360.800 228.800 C 360.580 228.800,360.400 229.623,360.400 230.629 C 360.400 232.449,359.280 234.440,358.899 233.296 C 358.808 233.023,358.428 232.800,358.055 232.800 C 357.682 232.800,357.117 232.440,356.800 232.000 C 356.483 231.560,355.903 231.200,355.512 231.200 C 355.120 231.200,354.800 231.020,354.800 230.800 C 354.800 230.580,354.350 230.400,353.800 230.400 C 353.250 230.400,352.800 230.220,352.800 230.000 C 352.800 229.780,352.440 229.600,352.000 229.600 C 351.560 229.600,351.200 229.420,351.200 229.200 C 351.200 228.980,350.840 228.800,350.400 228.800 C 349.960 228.800,349.600 228.620,349.600 228.400 C 349.600 228.180,349.240 228.000,348.800 228.000 C 348.360 228.000,348.000 227.820,348.000 227.600 C 348.000 227.380,347.640 227.200,347.200 227.200 C 346.760 227.200,346.400 227.020,346.400 226.800 C 346.400 226.580,345.860 226.400,345.200 226.400 C 344.540 226.400,344.000 226.220,344.000 226.000 C 344.000 225.780,343.460 225.600,342.800 225.600 C 342.000 225.600,341.600 225.400,341.600 225.000 C 341.600 224.623,341.220 224.400,340.576 224.400 C 339.996 224.400,339.660 224.227,339.800 224.000 C 339.947 223.762,339.479 223.600,338.647 223.600 C 337.877 223.600,337.136 223.420,337.000 223.200 C 336.864 222.980,336.133 222.800,335.376 222.800 C 334.619 222.800,334.000 222.620,334.000 222.400 C 334.000 222.180,333.280 222.000,332.400 222.000 C 331.520 222.000,330.800 221.820,330.800 221.600 C 330.800 221.380,329.900 221.200,328.800 221.200 C 327.700 221.200,326.800 221.020,326.800 220.800 C 326.800 220.567,325.467 220.400,323.600 220.400 C 321.733 220.400,320.400 220.233,320.400 220.000 C 320.400 219.744,316.867 219.600,310.600 219.600 C 304.333 219.600,300.800 219.744,300.800 220.000 C 300.800 220.225,299.675 220.400,298.224 220.400 C 296.807 220.400,295.536 220.580,295.400 220.800 C 295.264 221.020,294.173 221.200,292.976 221.200 C 291.779 221.200,290.800 221.380,290.800 221.600 C 290.800 221.820,290.080 222.000,289.200 222.000 C 288.320 222.000,287.600 222.180,287.600 222.400 C 287.600 222.620,286.880 222.800,286.000 222.800 C 285.120 222.800,284.400 222.980,284.400 223.200 C 284.400 223.420,283.860 223.600,283.200 223.600 C 282.540 223.600,282.000 223.780,282.000 224.000 C 282.000 224.220,281.479 224.400,280.843 224.400 C 280.183 224.400,279.587 224.658,279.455 225.000 C 279.321 225.351,278.721 225.600,278.013 225.600 C 277.346 225.600,276.800 225.780,276.800 226.000 C 276.800 226.220,276.440 226.400,276.000 226.400 C 275.560 226.400,275.200 226.580,275.200 226.800 C 275.200 227.020,274.840 227.200,274.400 227.200 C 273.960 227.200,273.600 227.380,273.600 227.600 C 273.600 227.820,273.240 228.000,272.800 228.000 C 272.360 228.000,272.000 228.180,272.000 228.400 C 272.000 228.620,271.500 228.800,270.888 228.800 C 270.235 228.800,269.539 229.130,269.200 229.600 C 268.883 230.040,268.303 230.400,267.912 230.400 C 267.520 230.400,267.200 230.580,267.200 230.800 C 267.200 231.020,266.840 231.200,266.400 231.200 C 265.960 231.200,265.600 231.380,265.600 231.600 C 265.600 231.820,265.280 232.000,264.888 232.000 C 264.497 232.000,263.917 232.360,263.600 232.800 C 263.283 233.240,262.703 233.600,262.312 233.600 C 261.920 233.600,261.600 233.780,261.600 234.000 C 261.600 234.220,261.222 234.400,260.760 234.400 C 260.299 234.400,259.417 234.940,258.800 235.600 C 258.183 236.260,257.515 236.800,257.314 236.800 C 257.114 236.800,256.432 237.340,255.800 238.000 C 255.168 238.660,254.409 239.200,254.115 239.200 C 253.610 239.200,250.000 242.530,250.000 242.995 C 250.000 243.282,243.275 250.000,242.988 250.000 C 242.591 250.000,240.800 251.949,240.800 252.381 C 240.800 252.611,240.080 253.563,239.200 254.497 C 238.320 255.431,237.600 256.382,237.600 256.610 C 237.600 256.837,237.240 257.283,236.800 257.600 C 236.360 257.917,236.000 258.457,236.000 258.800 C 236.000 259.143,235.640 259.683,235.200 260.000 C 234.760 260.317,234.400 260.987,234.400 261.488 C 234.400 261.990,234.220 262.400,234.000 262.400 C 233.780 262.400,233.600 262.720,233.600 263.112 C 233.600 263.503,233.240 264.083,232.800 264.400 C 232.360 264.717,232.000 265.297,232.000 265.688 C 232.000 266.080,231.820 266.400,231.600 266.400 C 231.380 266.400,231.200 266.760,231.200 267.200 C 231.200 267.640,231.020 268.000,230.800 268.000 C 230.580 268.000,230.400 268.360,230.400 268.800 C 230.400 269.240,230.220 269.600,230.000 269.600 C 229.780 269.600,229.600 269.960,229.600 270.400 C 229.600 270.840,229.420 271.200,229.200 271.200 C 228.980 271.200,228.800 271.560,228.800 272.000 C 228.800 272.440,228.620 272.800,228.400 272.800 C 228.180 272.800,228.000 273.340,228.000 274.000 C 228.000 274.660,227.820 275.200,227.600 275.200 C 227.380 275.200,227.200 275.560,227.200 276.000 C 227.200 276.440,227.020 276.800,226.800 276.800 C 226.580 276.800,226.400 277.340,226.400 278.000 C 226.400 278.660,226.220 279.200,226.000 279.200 C 225.780 279.200,225.600 279.830,225.600 280.600 C 225.600 281.578,225.419 282.000,225.000 282.000 C 224.600 282.000,224.400 282.400,224.400 283.200 C 224.400 283.860,224.220 284.400,224.000 284.400 C 223.780 284.400,223.600 284.940,223.600 285.600 C 223.600 286.260,223.420 286.800,223.200 286.800 C 222.980 286.800,222.800 287.700,222.800 288.800 C 222.800 289.900,222.620 290.800,222.400 290.800 C 222.180 290.800,222.000 291.779,222.000 292.976 C 222.000 294.173,221.820 295.264,221.600 295.400 C 221.380 295.536,221.200 296.987,221.200 298.624 C 221.200 300.402,221.034 301.600,220.787 301.600 C 220.515 301.600,220.388 304.656,220.415 310.600 C 220.439 315.857,220.610 319.600,220.828 319.600 C 221.033 319.600,221.200 321.040,221.200 322.800 C 221.200 324.667,221.367 326.000,221.600 326.000 C 221.820 326.000,222.000 326.900,222.000 328.000 C 222.000 329.100,222.180 330.000,222.400 330.000 C 222.620 330.000,222.800 330.720,222.800 331.600 C 222.800 332.480,222.980 333.200,223.200 333.200 C 223.420 333.200,223.600 333.905,223.600 334.767 C 223.600 335.628,223.774 336.393,223.987 336.467 C 224.200 336.540,224.419 337.185,224.472 337.900 C 224.528 338.643,224.791 339.200,225.085 339.200 C 225.391 339.200,225.600 339.688,225.600 340.400 C 225.600 341.060,225.780 341.600,226.000 341.600 C 226.220 341.600,226.400 342.140,226.400 342.800 C 226.400 343.460,226.580 344.000,226.800 344.000 C 227.020 344.000,227.200 344.360,227.200 344.800 C 227.200 345.240,227.380 345.600,227.600 345.600 C 227.820 345.600,228.000 346.140,228.000 346.800 C 228.000 347.460,228.180 348.000,228.400 348.000 C 228.620 348.000,228.800 348.360,228.800 348.800 C 228.800 349.240,228.980 349.600,229.200 349.600 C 229.420 349.600,229.600 349.960,229.600 350.400 C 229.600 350.840,229.780 351.200,230.000 351.200 C 230.220 351.200,230.400 351.560,230.400 352.000 C 230.400 352.440,230.580 352.800,230.800 352.800 C 231.020 352.800,231.200 353.210,231.200 353.712 C 231.200 354.213,231.560 354.883,232.000 355.200 C 232.440 355.517,232.800 356.097,232.800 356.488 C 232.800 356.880,232.980 357.200,233.200 357.200 C 233.794 357.200,233.684 358.373,233.029 359.029 C 232.700 359.357,231.680 359.600,230.629 359.600 C 229.623 359.600,228.800 359.780,228.800 360.000 C 228.800 360.226,227.667 360.400,226.200 360.400 C 224.733 360.400,223.600 360.574,223.600 360.800 C 223.600 361.033,222.267 361.200,220.400 361.200 C 218.533 361.200,217.200 361.367,217.200 361.600 C 217.200 361.847,215.133 362.000,211.800 362.000 C 208.467 362.000,206.400 362.153,206.400 362.400 C 206.400 362.650,204.000 362.800,200.000 362.800 C 196.000 362.800,193.600 362.650,193.600 362.400 C 193.600 362.153,191.541 362.000,188.224 362.000 C 185.071 362.000,182.745 361.835,182.600 361.600 C 182.464 361.380,181.013 361.200,179.376 361.200 C 177.659 361.200,176.400 361.031,176.400 360.800 C 176.400 360.574,175.267 360.400,173.800 360.400 C 172.333 360.400,171.200 360.226,171.200 360.000 C 171.200 359.780,170.300 359.600,169.200 359.600 C 168.100 359.600,167.200 359.420,167.200 359.200 C 167.200 358.980,166.480 358.800,165.600 358.800 C 164.720 358.800,164.000 358.620,164.000 358.400 C 164.000 358.180,163.111 358.000,162.024 358.000 C 160.937 358.000,159.936 357.820,159.800 357.600 C 159.664 357.380,159.113 357.200,158.576 357.200 C 158.039 357.200,157.600 357.020,157.600 356.800 C 157.600 356.580,156.790 356.400,155.800 356.400 C 154.810 356.400,154.000 356.220,154.000 356.000 C 154.000 355.780,153.460 355.600,152.800 355.600 C 152.140 355.600,151.600 355.420,151.600 355.200 C 151.600 354.980,151.060 354.800,150.400 354.800 C 149.740 354.800,149.200 354.620,149.200 354.400 C 149.200 354.180,148.660 354.000,148.000 354.000 C 147.340 354.000,146.800 353.820,146.800 353.600 C 146.800 353.380,146.260 353.200,145.600 353.200 C 144.800 353.200,144.400 353.000,144.400 352.600 C 144.400 352.200,144.000 352.000,143.200 352.000 C 142.540 352.000,142.000 351.820,142.000 351.600 C 142.000 351.380,141.539 351.200,140.976 351.200 C 140.396 351.200,140.060 351.027,140.200 350.800 C 140.343 350.569,139.964 350.400,139.303 350.400 C 138.069 350.400,136.008 349.588,136.003 349.100 C 136.001 348.935,135.640 348.800,135.200 348.800 C 134.760 348.800,134.400 348.620,134.400 348.400 C 134.400 348.180,134.040 348.000,133.600 348.000 C 133.160 348.000,132.800 347.820,132.800 347.600 C 132.800 347.380,132.386 347.200,131.880 347.200 C 130.826 347.200,128.808 346.347,128.803 345.900 C 128.801 345.735,128.440 345.600,128.000 345.600 C 127.560 345.600,127.200 345.420,127.200 345.200 C 127.200 344.980,126.840 344.800,126.400 344.800 C 125.960 344.800,125.600 344.620,125.600 344.400 C 125.600 344.180,125.280 344.000,124.888 344.000 C 124.497 344.000,123.917 343.640,123.600 343.200 C 123.283 342.760,122.703 342.400,122.312 342.400 C 121.920 342.400,121.600 342.220,121.600 342.000 C 121.600 341.780,121.240 341.600,120.800 341.600 C 120.360 341.600,120.000 341.420,120.000 341.200 C 120.000 340.980,119.640 340.800,119.200 340.800 C 118.760 340.800,118.400 340.620,118.400 340.400 C 118.400 340.180,118.130 340.000,117.800 340.000 C 117.470 340.000,117.200 339.820,117.200 339.600 C 117.200 339.380,116.840 339.200,116.400 339.200 C 115.960 339.200,115.600 339.020,115.600 338.800 C 115.600 338.580,115.280 338.400,114.888 338.400 C 114.497 338.400,113.917 338.040,113.600 337.600 C 113.283 337.160,112.743 336.800,112.400 336.800 C 112.057 336.800,111.517 336.440,111.200 336.000 C 110.883 335.560,110.380 335.200,110.083 335.200 C 109.438 335.200,108.400 334.231,108.400 333.629 C 108.400 333.393,108.112 333.200,107.760 333.200 C 107.409 333.200,106.617 332.660,106.000 332.000 C 105.383 331.340,104.523 330.800,104.088 330.800 C 103.223 330.800,102.250 329.883,102.670 329.463 C 102.815 329.318,102.583 329.200,102.155 329.200 C 101.727 329.200,101.117 328.840,100.800 328.400 C 100.483 327.960,100.033 327.600,99.800 327.600 C 99.567 327.600,99.117 327.240,98.800 326.800 C 98.483 326.360,97.983 326.000,97.690 326.000 C 97.396 326.000,96.096 324.920,94.800 323.600 C 93.504 322.280,92.251 321.200,92.015 321.200 C 91.469 321.200,86.166 315.917,86.300 315.506 C 86.355 315.338,86.119 315.200,85.776 315.200 C 85.433 315.200,85.264 315.020,85.400 314.800 C 85.536 314.580,85.356 314.400,85.000 314.400 C 84.644 314.400,84.435 314.265,84.534 314.100 C 84.771 313.709,83.760 312.774,83.443 313.091 C 83.309 313.224,83.200 313.023,83.200 312.643 C 83.200 312.263,83.020 312.064,82.800 312.200 C 82.580 312.336,82.400 312.167,82.400 311.824 C 82.400 311.481,82.214 311.200,81.987 311.200 C 81.436 311.200,78.800 308.545,78.800 307.991 C 78.800 307.752,77.720 306.496,76.400 305.200 C 75.080 303.904,74.000 302.640,74.000 302.391 C 74.000 302.141,73.280 301.246,72.400 300.400 C 71.520 299.554,70.800 298.561,70.800 298.192 C 70.800 297.823,70.260 297.017,69.600 296.400 C 68.940 295.783,68.400 294.961,68.400 294.573 C 68.400 294.184,68.282 293.985,68.137 294.130 C 67.700 294.566,66.800 293.562,66.800 292.639 C 66.800 292.165,66.440 291.517,66.000 291.200 C 65.560 290.883,65.200 290.380,65.200 290.083 C 65.200 289.438,64.231 288.400,63.629 288.400 C 63.393 288.400,63.200 288.080,63.200 287.688 C 63.200 287.297,62.840 286.717,62.400 286.400 C 61.960 286.083,61.600 285.503,61.600 285.112 C 61.600 284.720,61.420 284.400,61.200 284.400 C 60.980 284.400,60.800 284.080,60.800 283.688 C 60.800 283.297,60.440 282.717,60.000 282.400 C 59.560 282.083,59.200 281.503,59.200 281.112 C 59.200 280.720,59.020 280.400,58.800 280.400 C 58.580 280.400,58.400 279.950,58.400 279.400 C 58.400 278.850,58.220 278.400,58.000 278.400 C 57.780 278.400,57.600 278.080,57.600 277.688 C 57.600 277.297,57.240 276.717,56.800 276.400 C 56.360 276.083,56.000 275.503,56.000 275.112 C 56.000 274.720,55.820 274.400,55.600 274.400 C 55.380 274.400,55.200 274.040,55.200 273.600 C 55.200 273.160,55.020 272.800,54.800 272.800 C 54.580 272.800,54.400 272.440,54.400 272.000 C 54.400 271.560,54.265 271.199,54.100 271.197 C 53.653 271.192,52.800 269.174,52.800 268.120 C 52.800 267.614,52.620 267.200,52.400 267.200 C 52.180 267.200,52.000 266.840,52.000 266.400 C 52.000 265.960,51.820 265.600,51.600 265.600 C 51.380 265.600,51.200 265.240,51.200 264.800 C 51.200 264.360,51.020 264.000,50.800 264.000 C 50.580 264.000,50.400 263.655,50.400 263.233 C 50.400 262.812,50.237 262.407,50.038 262.333 C 49.839 262.260,49.614 261.660,49.538 261.000 C 49.462 260.340,49.085 259.451,48.700 259.025 C 48.315 258.598,48.000 257.653,48.000 256.925 C 48.000 256.196,47.820 255.600,47.600 255.600 C 47.380 255.600,47.200 255.060,47.200 254.400 C 47.200 253.740,47.020 253.200,46.800 253.200 C 46.580 253.200,46.400 252.660,46.400 252.000 C 46.400 251.200,46.200 250.800,45.800 250.800 C 45.400 250.800,45.200 250.400,45.200 249.600 C 45.200 248.940,45.020 248.400,44.800 248.400 C 44.580 248.400,44.400 247.860,44.400 247.200 C 44.400 246.540,44.220 246.000,44.000 246.000 C 43.780 246.000,43.600 245.190,43.600 244.200 C 43.600 243.210,43.420 242.400,43.200 242.400 C 42.980 242.400,42.800 241.860,42.800 241.200 C 42.800 240.540,42.620 240.000,42.400 240.000 C 42.180 240.000,42.000 239.100,42.000 238.000 C 42.000 236.900,41.820 236.000,41.600 236.000 C 41.380 236.000,41.200 235.280,41.200 234.400 C 41.200 233.520,41.020 232.800,40.800 232.800 C 40.580 232.800,40.400 231.900,40.400 230.800 C 40.400 229.700,40.220 228.800,40.000 228.800 C 39.774 228.800,39.600 227.667,39.600 226.200 C 39.600 224.733,39.426 223.600,39.200 223.600 C 38.969 223.600,38.800 222.341,38.800 220.624 C 38.800 218.987,38.620 217.536,38.400 217.400 C 38.163 217.254,38.000 214.796,38.000 211.376 C 38.000 207.792,37.848 205.600,37.600 205.600 C 37.352 205.600,37.200 203.467,37.200 200.000 C 37.200 196.533,37.352 194.400,37.600 194.400 C 37.848 194.400,38.000 192.200,38.000 188.600 C 38.000 185.000,38.152 182.800,38.400 182.800 C 38.633 182.800,38.800 181.467,38.800 179.600 C 38.800 177.733,38.967 176.400,39.200 176.400 C 39.426 176.400,39.600 175.267,39.600 173.800 C 39.600 172.333,39.774 171.200,40.000 171.200 C 40.220 171.200,40.400 170.300,40.400 169.200 C 40.400 168.100,40.580 167.200,40.800 167.200 C 41.020 167.200,41.200 166.480,41.200 165.600 C 41.200 164.720,41.380 164.000,41.600 164.000 C 41.820 164.000,42.000 163.100,42.000 162.000 C 42.000 160.900,42.180 160.000,42.400 160.000 C 42.620 160.000,42.800 159.460,42.800 158.800 C 42.800 158.140,42.980 157.600,43.200 157.600 C 43.420 157.600,43.600 156.790,43.600 155.800 C 43.600 154.810,43.780 154.000,44.000 154.000 C 44.220 154.000,44.400 153.460,44.400 152.800 C 44.400 152.140,44.580 151.600,44.800 151.600 C 45.020 151.600,45.200 151.060,45.200 150.400 C 45.200 149.600,45.400 149.200,45.800 149.200 C 46.200 149.200,46.400 148.800,46.400 148.000 C 46.400 147.340,46.580 146.800,46.800 146.800 C 47.020 146.800,47.200 146.260,47.200 145.600 C 47.200 144.940,47.380 144.400,47.600 144.400 C 47.820 144.400,48.000 144.040,48.000 143.600 C 48.000 143.160,48.180 142.800,48.400 142.800 C 48.620 142.800,48.800 142.204,48.800 141.475 C 48.800 140.704,49.134 139.792,49.600 139.292 C 50.040 138.820,50.400 137.886,50.400 137.217 C 50.400 136.548,50.580 136.000,50.800 136.000 C 51.020 136.000,51.200 135.640,51.200 135.200 C 51.200 134.760,51.380 134.400,51.600 134.400 C 51.820 134.400,52.000 134.040,52.000 133.600 C 52.000 133.160,52.180 132.800,52.400 132.800 C 52.620 132.800,52.800 132.440,52.800 132.000 C 52.800 131.560,52.980 131.200,53.200 131.200 C 53.420 131.200,53.600 130.778,53.600 130.261 C 53.600 129.158,54.566 127.092,55.408 126.393 C 55.734 126.123,56.000 125.654,56.000 125.351 C 56.000 125.048,56.180 124.800,56.400 124.800 C 56.620 124.800,56.800 124.566,56.800 124.280 C 56.800 123.544,57.741 121.607,58.100 121.603 C 58.265 121.601,58.400 121.240,58.400 120.800 C 58.400 120.360,58.580 120.000,58.800 120.000 C 59.020 120.000,59.200 119.640,59.200 119.200 C 59.200 118.760,59.380 118.400,59.600 118.400 C 59.820 118.400,60.000 118.130,60.000 117.800 C 60.000 117.470,60.180 117.200,60.400 117.200 C 60.620 117.200,60.800 116.840,60.800 116.400 C 60.800 115.960,60.980 115.600,61.200 115.600 C 61.420 115.600,61.600 115.280,61.600 114.888 C 61.600 114.497,61.960 113.917,62.400 113.600 C 62.840 113.283,63.200 112.703,63.200 112.312 C 63.200 111.920,63.393 111.600,63.629 111.600 C 64.231 111.600,65.200 110.562,65.200 109.917 C 65.200 109.620,65.560 109.117,66.000 108.800 C 66.440 108.483,66.800 107.983,66.800 107.690 C 66.800 107.397,67.339 106.581,67.998 105.878 C 68.657 105.175,69.197 104.447,69.198 104.260 C 69.199 104.074,69.740 103.417,70.400 102.800 C 71.060 102.183,71.600 101.391,71.600 101.040 C 71.600 100.688,71.780 100.400,72.000 100.400 C 72.220 100.400,72.400 100.202,72.400 99.960 C 72.400 99.719,72.940 99.017,73.600 98.400 C 74.260 97.783,74.800 97.074,74.800 96.822 C 74.800 96.571,76.240 94.941,78.000 93.200 C 79.760 91.459,81.200 89.757,81.200 89.417 C 81.200 89.078,81.388 88.800,81.618 88.800 C 82.095 88.800,83.574 87.333,84.263 86.176 C 84.517 85.749,84.922 85.445,85.163 85.500 C 85.403 85.555,85.555 85.403,85.500 85.163 C 85.445 84.922,85.757 84.517,86.194 84.263 C 86.631 84.008,87.282 83.485,87.641 83.100 C 88.000 82.715,88.588 82.400,88.947 82.400 C 89.306 82.400,89.600 82.217,89.600 81.994 C 89.600 81.444,95.473 75.600,96.025 75.600 C 96.266 75.600,97.154 74.880,98.000 74.000 C 98.846 73.120,99.839 72.400,100.208 72.400 C 100.577 72.400,101.383 71.860,102.000 71.200 C 102.617 70.540,103.365 70.000,103.664 70.000 C 103.963 70.000,104.432 69.640,104.707 69.200 C 104.982 68.760,105.449 68.400,105.744 68.400 C 106.040 68.400,106.846 67.860,107.537 67.200 C 108.228 66.540,109.025 66.000,109.308 66.000 C 109.591 66.000,110.083 65.640,110.400 65.200 C 110.717 64.760,111.297 64.400,111.688 64.400 C 112.080 64.400,112.400 64.130,112.400 63.800 C 112.400 63.470,112.720 63.200,113.112 63.200 C 113.503 63.200,114.083 62.840,114.400 62.400 C 114.717 61.960,115.257 61.600,115.600 61.600 C 115.943 61.600,116.483 61.240,116.800 60.800 C 117.117 60.360,117.787 60.000,118.288 60.000 C 118.790 60.000,119.200 59.820,119.200 59.600 C 119.200 59.380,119.560 59.200,120.000 59.200 C 120.440 59.200,120.800 59.020,120.800 58.800 C 120.800 58.580,121.145 58.400,121.567 58.400 C 121.988 58.400,122.393 58.265,122.467 58.100 C 122.639 57.713,127.572 55.200,128.160 55.200 C 128.406 55.200,128.832 54.840,129.107 54.400 C 129.426 53.890,130.040 53.600,130.803 53.600 C 131.462 53.600,132.000 53.420,132.000 53.200 C 132.000 52.980,132.360 52.800,132.800 52.800 C 133.240 52.800,133.600 52.620,133.600 52.400 C 133.600 52.180,133.960 52.000,134.400 52.000 C 134.840 52.000,135.200 51.820,135.200 51.600 C 135.200 51.380,135.650 51.200,136.200 51.200 C 136.750 51.200,137.200 51.020,137.200 50.800 C 137.200 50.580,137.751 50.400,138.424 50.400 C 139.137 50.400,139.544 50.233,139.400 50.000 C 139.253 49.762,139.729 49.600,140.576 49.600 C 141.359 49.600,142.000 49.420,142.000 49.200 C 142.000 48.980,142.360 48.800,142.800 48.800 C 143.240 48.800,143.600 48.620,143.600 48.400 C 143.600 48.180,144.140 48.000,144.800 48.000 C 145.460 48.000,146.000 47.820,146.000 47.600 C 146.000 47.380,146.540 47.200,147.200 47.200 C 147.860 47.200,148.400 47.020,148.400 46.800 C 148.400 46.580,148.940 46.400,149.600 46.400 C 150.400 46.400,150.800 46.200,150.800 45.800 C 150.800 45.400,151.200 45.200,152.000 45.200 C 152.660 45.200,153.200 45.020,153.200 44.800 C 153.200 44.580,154.010 44.400,155.000 44.400 C 155.990 44.400,156.800 44.220,156.800 44.000 C 156.800 43.780,157.340 43.600,158.000 43.600 C 158.660 43.600,159.200 43.420,159.200 43.200 C 159.200 42.980,160.100 42.800,161.200 42.800 C 162.300 42.800,163.200 42.620,163.200 42.400 C 163.200 42.180,163.920 42.000,164.800 42.000 C 165.680 42.000,166.400 41.820,166.400 41.600 C 166.400 41.380,167.300 41.200,168.400 41.200 C 169.500 41.200,170.400 41.020,170.400 40.800 C 170.400 40.574,171.533 40.400,173.000 40.400 C 174.467 40.400,175.600 40.226,175.600 40.000 C 175.600 39.767,176.933 39.600,178.800 39.600 C 180.667 39.600,182.000 39.433,182.000 39.200 C 182.000 38.953,184.067 38.800,187.400 38.800 C 190.733 38.800,192.800 38.647,192.800 38.400 C 192.800 38.148,195.533 38.000,200.200 38.000 C 204.867 38.000,207.600 38.148,207.600 38.400 M195.400 93.200 C 195.264 93.420,194.443 93.600,193.576 93.600 C 192.709 93.600,192.000 93.780,192.000 94.000 C 192.000 94.220,191.640 94.400,191.200 94.400 C 190.760 94.400,190.400 94.580,190.400 94.800 C 190.400 95.020,189.950 95.200,189.400 95.200 C 188.850 95.200,188.445 95.373,188.500 95.584 C 188.555 95.794,187.295 97.216,185.700 98.743 C 184.105 100.269,182.800 101.796,182.800 102.136 C 182.800 102.475,182.620 102.864,182.400 103.000 C 182.180 103.136,182.000 103.676,182.000 104.200 C 182.000 104.724,181.820 105.264,181.600 105.400 C 181.380 105.536,181.200 106.267,181.200 107.024 C 181.200 107.781,181.020 108.400,180.800 108.400 C 180.536 108.400,180.400 120.800,180.400 144.800 L 180.400 181.200 131.400 181.200 C 99.000 181.200,82.400 181.336,82.400 181.600 C 82.400 181.820,81.860 182.000,81.200 182.000 C 80.540 182.000,80.000 182.180,80.000 182.400 C 80.000 182.620,79.447 182.800,78.771 182.800 C 77.556 182.800,76.208 183.674,76.686 184.152 C 76.914 184.381,75.837 184.571,75.070 184.437 C 74.889 184.406,74.855 184.565,74.994 184.790 C 75.133 185.016,75.052 185.200,74.813 185.200 C 74.261 185.200,70.800 188.641,70.800 189.189 C 70.800 189.415,70.620 189.600,70.400 189.600 C 70.180 189.600,70.000 189.960,70.000 190.400 C 70.000 190.840,69.820 191.200,69.600 191.200 C 69.380 191.200,69.200 191.560,69.200 192.000 C 69.200 192.440,69.020 192.800,68.800 192.800 C 68.580 192.800,68.400 193.340,68.400 194.000 C 68.400 194.660,68.220 195.200,68.000 195.200 C 67.756 195.200,67.600 197.067,67.600 200.000 C 67.600 202.933,67.756 204.800,68.000 204.800 C 68.220 204.800,68.400 205.340,68.400 206.000 C 68.400 206.660,68.580 207.200,68.800 207.200 C 69.020 207.200,69.200 207.560,69.200 208.000 C 69.200 208.440,69.380 208.800,69.600 208.800 C 69.820 208.800,70.000 209.160,70.000 209.600 C 70.000 210.506,75.755 216.400,76.639 216.400 C 76.948 216.400,77.200 216.580,77.200 216.800 C 77.200 217.020,77.830 217.200,78.600 217.200 C 79.370 217.200,80.000 217.380,80.000 217.600 C 80.000 217.820,80.720 218.000,81.600 218.000 C 82.480 218.000,83.200 218.180,83.200 218.400 C 83.200 218.665,103.467 218.800,143.200 218.800 C 182.933 218.800,203.200 218.665,203.200 218.400 C 203.200 218.180,203.920 218.000,204.800 218.000 C 205.680 218.000,206.400 217.820,206.400 217.600 C 206.400 217.380,206.940 217.200,207.600 217.200 C 208.260 217.200,208.800 217.020,208.800 216.800 C 208.800 216.580,209.166 216.400,209.613 216.400 C 210.319 216.400,213.225 213.979,213.207 213.407 C 213.203 213.293,213.294 213.204,213.409 213.209 C 213.878 213.229,215.600 211.193,215.600 210.618 C 215.600 210.278,215.780 210.000,216.000 210.000 C 216.220 210.000,216.400 209.550,216.400 209.000 C 216.400 208.450,216.580 208.000,216.800 208.000 C 217.020 208.000,217.200 207.280,217.200 206.400 C 217.200 205.520,217.380 204.800,217.600 204.800 C 217.864 204.800,218.000 188.467,218.000 156.600 C 218.000 124.733,217.864 108.400,217.600 108.400 C 217.380 108.400,217.200 107.781,217.200 107.024 C 217.200 106.267,217.020 105.536,216.800 105.400 C 216.580 105.264,216.400 104.663,216.400 104.065 C 216.400 103.435,216.063 102.733,215.600 102.400 C 215.160 102.083,214.800 101.579,214.800 101.280 C 214.800 100.982,214.035 100.000,213.100 99.098 C 212.165 98.197,211.449 97.297,211.510 97.100 C 211.570 96.902,211.459 96.840,211.263 96.961 C 210.881 97.197,209.475 95.859,209.782 95.551 C 209.883 95.450,209.571 95.338,209.089 95.302 C 208.606 95.265,208.149 95.048,208.073 94.818 C 207.996 94.588,207.588 94.400,207.167 94.400 C 206.745 94.400,206.400 94.220,206.400 94.000 C 206.400 93.780,205.691 93.600,204.824 93.600 C 203.957 93.600,203.136 93.420,203.000 93.200 C 202.864 92.980,201.154 92.800,199.200 92.800 C 197.246 92.800,195.536 92.980,195.400 93.200 M321.200 231.600 C 321.200 231.822,322.267 232.000,323.600 232.000 C 324.933 232.000,326.000 232.178,326.000 232.400 C 326.000 232.620,326.709 232.800,327.576 232.800 C 328.443 232.800,329.264 232.980,329.400 233.200 C 329.536 233.420,330.267 233.600,331.024 233.600 C 331.781 233.600,332.400 233.780,332.400 234.000 C 332.400 234.220,333.030 234.400,333.800 234.400 C 334.570 234.400,335.200 234.580,335.200 234.800 C 335.200 235.020,335.740 235.200,336.400 235.200 C 337.060 235.200,337.600 235.380,337.600 235.600 C 337.600 235.820,338.140 236.000,338.800 236.000 C 339.460 236.000,340.000 236.180,340.000 236.400 C 340.000 236.620,340.360 236.800,340.800 236.800 C 341.240 236.800,341.600 236.980,341.600 237.200 C 341.600 237.420,341.834 237.600,342.120 237.600 C 342.856 237.600,344.793 238.541,344.797 238.900 C 344.799 239.065,345.034 239.200,345.320 239.200 C 346.056 239.200,347.993 240.141,347.997 240.500 C 347.999 240.665,348.360 240.800,348.800 240.800 C 349.240 240.800,349.600 240.980,349.600 241.200 C 349.600 241.420,349.920 241.600,350.312 241.600 C 350.703 241.600,351.283 241.960,351.600 242.400 C 351.917 242.840,352.547 243.200,353.000 243.200 C 353.453 243.200,354.083 243.560,354.400 244.000 C 354.717 244.440,355.297 244.800,355.688 244.800 C 356.080 244.800,356.400 244.988,356.400 245.218 C 356.400 245.775,358.245 247.600,358.808 247.600 C 359.052 247.600,360.129 248.500,361.200 249.600 C 362.271 250.700,363.367 251.600,363.634 251.600 C 364.214 251.600,368.400 255.840,368.400 256.427 C 368.400 256.860,370.199 258.800,370.600 258.800 C 371.060 258.800,372.800 260.772,372.800 261.294 C 372.800 261.585,373.160 262.083,373.600 262.400 C 374.040 262.717,374.400 263.207,374.400 263.488 C 374.400 263.770,374.580 264.000,374.800 264.000 C 375.020 264.000,375.200 264.320,375.200 264.712 C 375.200 265.103,375.560 265.683,376.000 266.000 C 376.440 266.317,376.800 266.857,376.800 267.200 C 376.800 267.543,377.160 268.083,377.600 268.400 C 378.040 268.717,378.400 269.282,378.400 269.655 C 378.400 270.028,378.535 270.393,378.700 270.467 C 379.124 270.655,381.600 275.599,381.600 276.256 C 381.600 276.555,381.780 276.800,382.000 276.800 C 382.220 276.800,382.400 277.160,382.400 277.600 C 382.400 278.040,382.580 278.400,382.800 278.400 C 383.020 278.400,383.200 278.745,383.200 279.167 C 383.200 279.588,383.374 279.993,383.587 280.067 C 383.800 280.140,384.019 280.785,384.072 281.500 C 384.126 282.215,384.312 282.800,384.485 282.800 C 384.658 282.800,384.800 283.149,384.800 283.576 C 384.800 284.003,384.980 284.464,385.200 284.600 C 385.420 284.736,385.600 285.467,385.600 286.224 C 385.600 286.981,385.780 287.600,386.000 287.600 C 386.220 287.600,386.400 288.320,386.400 289.200 C 386.400 290.080,386.580 290.800,386.800 290.800 C 387.020 290.800,387.200 291.520,387.200 292.400 C 387.200 293.280,387.380 294.000,387.600 294.000 C 387.822 294.000,388.000 295.067,388.000 296.400 C 388.000 298.267,388.133 298.800,388.600 298.800 C 389.119 298.800,389.200 300.267,389.200 309.600 C 389.200 318.933,389.119 320.400,388.600 320.400 C 388.133 320.400,388.000 320.933,388.000 322.800 C 388.000 324.133,387.822 325.200,387.600 325.200 C 387.380 325.200,387.200 325.920,387.200 326.800 C 387.200 327.680,387.020 328.400,386.800 328.400 C 386.580 328.400,386.400 329.199,386.400 330.176 C 386.400 331.153,386.220 332.064,386.000 332.200 C 385.780 332.336,385.600 332.887,385.600 333.424 C 385.600 333.961,385.420 334.400,385.200 334.400 C 384.980 334.400,384.800 334.940,384.800 335.600 C 384.800 336.260,384.620 336.800,384.400 336.800 C 384.180 336.800,384.000 337.214,384.000 337.720 C 384.000 338.774,383.147 340.792,382.700 340.797 C 382.535 340.799,382.400 341.034,382.400 341.320 C 382.400 342.056,381.459 343.993,381.100 343.997 C 380.935 343.999,380.800 344.360,380.800 344.800 C 380.800 345.240,380.620 345.600,380.400 345.600 C 380.180 345.600,380.000 345.960,380.000 346.400 C 380.000 346.840,379.820 347.200,379.600 347.200 C 379.380 347.200,379.200 347.560,379.200 348.000 C 379.200 348.440,379.020 348.800,378.800 348.800 C 378.580 348.800,378.400 349.120,378.400 349.512 C 378.400 349.903,378.040 350.483,377.600 350.800 C 377.160 351.117,376.800 351.747,376.800 352.200 C 376.800 352.653,376.440 353.283,376.000 353.600 C 375.560 353.917,375.200 354.425,375.200 354.728 C 375.200 355.031,374.660 355.783,374.000 356.400 C 373.340 357.017,372.800 357.727,372.800 357.979 C 372.800 358.447,371.026 360.400,370.600 360.400 C 370.189 360.400,368.400 362.344,368.400 362.791 C 368.400 363.344,364.148 367.600,363.595 367.600 C 363.153 367.600,360.400 370.197,360.400 370.615 C 360.400 371.035,359.277 372.000,358.789 372.000 C 358.532 372.000,357.817 372.540,357.200 373.200 C 356.583 373.860,355.831 374.400,355.528 374.400 C 355.225 374.400,354.717 374.760,354.400 375.200 C 354.083 375.640,353.453 376.000,353.000 376.000 C 352.547 376.000,351.917 376.360,351.600 376.800 C 351.283 377.240,350.703 377.600,350.312 377.600 C 349.920 377.600,349.600 377.780,349.600 378.000 C 349.600 378.220,349.240 378.400,348.800 378.400 C 348.360 378.400,348.000 378.580,348.000 378.800 C 348.000 379.020,347.640 379.200,347.200 379.200 C 346.760 379.200,346.400 379.380,346.400 379.600 C 346.400 379.820,346.040 380.000,345.600 380.000 C 345.160 380.000,344.800 380.180,344.800 380.400 C 344.800 380.620,344.455 380.800,344.033 380.800 C 343.612 380.800,343.207 380.935,343.133 381.100 C 342.885 381.659,339.530 383.200,338.562 383.200 C 338.033 383.200,337.600 383.380,337.600 383.600 C 337.600 383.820,337.075 384.000,336.433 384.000 C 335.792 384.000,335.207 384.163,335.133 384.362 C 335.060 384.561,334.460 384.786,333.800 384.861 C 333.140 384.936,332.505 385.124,332.388 385.280 C 332.271 385.436,331.506 385.608,330.688 385.663 C 329.870 385.718,329.200 385.907,329.200 386.082 C 329.200 386.257,328.480 386.400,327.600 386.400 C 326.720 386.400,326.000 386.580,326.000 386.800 C 326.000 387.022,324.933 387.200,323.600 387.200 C 322.267 387.200,321.200 387.378,321.200 387.600 C 321.200 387.857,317.333 388.000,310.400 388.000 C 303.467 388.000,299.600 387.857,299.600 387.600 C 299.600 387.378,298.533 387.200,297.200 387.200 C 295.867 387.200,294.800 387.022,294.800 386.800 C 294.800 386.580,294.080 386.400,293.200 386.400 C 292.320 386.400,291.600 386.220,291.600 386.000 C 291.600 385.780,290.880 385.600,290.000 385.600 C 289.120 385.600,288.400 385.420,288.400 385.200 C 288.400 384.980,287.781 384.800,287.024 384.800 C 286.267 384.800,285.536 384.620,285.400 384.400 C 285.264 384.180,284.803 384.000,284.376 384.000 C 283.949 384.000,283.600 383.820,283.600 383.600 C 283.600 383.380,282.970 383.200,282.200 383.200 C 281.430 383.200,280.800 383.020,280.800 382.800 C 280.800 382.580,280.440 382.400,280.000 382.400 C 279.560 382.400,279.200 382.220,279.200 382.000 C 279.200 381.780,278.840 381.600,278.400 381.600 C 277.960 381.600,277.600 381.420,277.600 381.200 C 277.600 380.980,277.240 380.800,276.800 380.800 C 276.360 380.800,276.000 380.620,276.000 380.400 C 276.000 380.180,275.640 380.000,275.200 380.000 C 274.760 380.000,274.400 379.820,274.400 379.600 C 274.400 379.380,274.165 379.200,273.879 379.200 C 273.120 379.200,269.349 377.261,268.784 376.581 C 268.519 376.261,268.094 376.000,267.839 376.000 C 267.585 376.000,267.117 375.640,266.800 375.200 C 266.483 374.760,265.943 374.400,265.600 374.400 C 265.257 374.400,264.717 374.040,264.400 373.600 C 264.083 373.160,263.593 372.800,263.312 372.800 C 263.030 372.800,262.800 372.620,262.800 372.400 C 262.800 372.180,262.517 372.000,262.171 372.000 C 261.557 372.000,260.400 371.096,260.400 370.615 C 260.400 370.197,257.647 367.600,257.205 367.600 C 256.647 367.600,252.400 363.342,252.400 362.783 C 252.400 362.544,251.500 361.471,250.400 360.400 C 249.300 359.329,248.400 358.242,248.400 357.986 C 248.400 357.730,247.860 357.017,247.200 356.400 C 246.540 355.783,246.000 354.991,246.000 354.640 C 246.000 354.288,245.807 354.000,245.571 354.000 C 244.894 354.000,244.000 352.928,244.000 352.117 C 244.000 351.710,243.640 351.117,243.200 350.800 C 242.760 350.483,242.400 349.903,242.400 349.512 C 242.400 349.120,242.220 348.800,242.000 348.800 C 241.780 348.800,241.600 348.440,241.600 348.000 C 241.600 347.560,241.465 347.199,241.300 347.197 C 240.941 347.193,240.000 345.256,240.000 344.520 C 240.000 344.234,239.820 344.000,239.600 344.000 C 239.380 344.000,239.200 343.640,239.200 343.200 C 239.200 342.760,239.020 342.400,238.800 342.400 C 238.580 342.400,238.400 342.040,238.400 341.600 C 238.400 341.160,238.220 340.800,238.000 340.800 C 237.780 340.800,237.600 340.440,237.600 340.000 C 237.600 339.560,237.420 339.200,237.200 339.200 C 236.980 339.200,236.800 338.660,236.800 338.000 C 236.800 337.340,236.620 336.800,236.400 336.800 C 236.180 336.800,236.000 336.260,236.000 335.600 C 236.000 334.940,235.820 334.400,235.600 334.400 C 235.380 334.400,235.200 333.770,235.200 333.000 C 235.200 332.230,235.020 331.600,234.800 331.600 C 234.580 331.600,234.400 330.880,234.400 330.000 C 234.400 329.120,234.220 328.400,234.000 328.400 C 233.780 328.400,233.600 327.680,233.600 326.800 C 233.600 325.920,233.420 325.200,233.200 325.200 C 232.980 325.200,232.800 324.221,232.800 323.024 C 232.800 321.827,232.620 320.736,232.400 320.600 C 232.149 320.445,232.000 316.329,232.000 309.576 C 232.000 302.659,232.143 298.800,232.400 298.800 C 232.622 298.800,232.800 297.741,232.800 296.424 C 232.800 295.117,232.980 293.936,233.200 293.800 C 233.420 293.664,233.600 292.933,233.600 292.176 C 233.600 291.419,233.780 290.800,234.000 290.800 C 234.220 290.800,234.400 290.080,234.400 289.200 C 234.400 288.320,234.580 287.600,234.800 287.600 C 235.020 287.600,235.200 287.060,235.200 286.400 C 235.200 285.740,235.380 285.200,235.600 285.200 C 235.820 285.200,236.000 284.660,236.000 284.000 C 236.000 283.340,236.180 282.800,236.400 282.800 C 236.620 282.800,236.800 282.170,236.800 281.400 C 236.800 280.630,236.980 280.000,237.200 280.000 C 237.420 280.000,237.600 279.640,237.600 279.200 C 237.600 278.760,237.780 278.400,238.000 278.400 C 238.220 278.400,238.400 278.040,238.400 277.600 C 238.400 277.160,238.580 276.800,238.800 276.800 C 239.020 276.800,239.200 276.440,239.200 276.000 C 239.200 275.560,239.380 275.200,239.600 275.200 C 239.820 275.200,240.000 274.840,240.000 274.400 C 240.000 273.960,240.180 273.600,240.400 273.600 C 240.620 273.600,240.800 273.240,240.800 272.800 C 240.800 272.360,240.980 272.000,241.200 272.000 C 241.420 272.000,241.600 271.640,241.600 271.200 C 241.600 270.760,241.780 270.400,242.000 270.400 C 242.220 270.400,242.400 270.080,242.400 269.688 C 242.400 269.297,242.760 268.717,243.200 268.400 C 243.640 268.083,244.000 267.585,244.000 267.294 C 244.000 267.002,244.450 266.314,245.000 265.764 C 245.550 265.214,246.000 264.574,246.000 264.342 C 246.000 264.111,246.540 263.417,247.200 262.800 C 247.860 262.183,248.400 261.479,248.400 261.235 C 248.400 260.990,249.298 259.848,250.396 258.695 C 251.494 257.543,252.394 256.405,252.396 256.168 C 252.401 255.663,256.567 251.600,257.079 251.600 C 257.269 251.600,258.369 250.700,259.522 249.600 C 260.675 248.500,261.807 247.600,262.036 247.600 C 262.266 247.600,263.048 246.970,263.774 246.200 C 264.500 245.430,265.348 244.800,265.659 244.800 C 265.969 244.800,266.483 244.440,266.800 244.000 C 267.117 243.560,267.657 243.200,268.000 243.200 C 268.343 243.200,268.883 242.840,269.200 242.400 C 269.517 241.960,270.097 241.600,270.488 241.600 C 270.880 241.600,271.200 241.420,271.200 241.200 C 271.200 240.980,271.560 240.800,272.000 240.800 C 272.440 240.800,272.800 240.620,272.800 240.400 C 272.800 240.180,273.160 240.000,273.600 240.000 C 274.040 240.000,274.400 239.820,274.400 239.600 C 274.400 239.380,274.760 239.200,275.200 239.200 C 275.640 239.200,276.000 239.020,276.000 238.800 C 276.000 238.580,276.360 238.400,276.800 238.400 C 277.240 238.400,277.600 238.220,277.600 238.000 C 277.600 237.780,277.960 237.600,278.400 237.600 C 278.840 237.600,279.200 237.420,279.200 237.200 C 279.200 236.980,279.560 236.800,280.000 236.800 C 280.440 236.800,280.800 236.620,280.800 236.400 C 280.800 236.180,281.430 236.000,282.200 236.000 C 282.970 236.000,283.600 235.820,283.600 235.600 C 283.600 235.380,284.140 235.200,284.800 235.200 C 285.460 235.200,286.000 235.020,286.000 234.800 C 286.000 234.580,286.540 234.400,287.200 234.400 C 287.860 234.400,288.400 234.220,288.400 234.000 C 288.400 233.780,289.120 233.600,290.000 233.600 C 290.880 233.600,291.600 233.420,291.600 233.200 C 291.600 232.980,292.219 232.800,292.976 232.800 C 293.733 232.800,294.464 232.620,294.600 232.400 C 294.736 232.180,295.917 232.000,297.224 232.000 C 298.541 232.000,299.600 231.822,299.600 231.600 C 299.600 231.343,303.467 231.200,310.400 231.200 C 317.333 231.200,321.200 231.343,321.200 231.600 M300.800 248.800 C 300.800 249.020,299.990 249.200,299.000 249.200 C 298.010 249.200,297.200 249.380,297.200 249.600 C 297.200 249.820,296.480 250.000,295.600 250.000 C 294.720 250.000,294.000 250.180,294.000 250.400 C 294.000 250.620,293.537 250.800,292.971 250.800 C 292.406 250.800,291.681 251.062,291.360 251.383 C 291.039 251.704,290.501 251.860,290.165 251.731 C 289.775 251.582,289.481 251.770,289.356 252.248 C 289.161 252.991,287.529 254.000,286.520 254.000 C 286.234 254.000,286.000 254.180,286.000 254.400 C 286.000 254.620,285.757 254.800,285.459 254.800 C 285.162 254.800,284.354 255.340,283.663 256.000 C 282.972 256.660,282.175 257.200,281.892 257.200 C 281.609 257.200,281.117 257.560,280.800 258.000 C 280.483 258.440,279.983 258.800,279.688 258.800 C 279.394 258.800,279.247 258.953,279.363 259.140 C 279.479 259.327,278.409 260.566,276.987 261.893 C 275.564 263.221,274.400 264.533,274.400 264.810 C 274.400 265.087,273.860 265.829,273.200 266.460 C 272.540 267.091,272.000 267.844,272.000 268.134 C 272.000 268.423,271.545 269.088,270.990 269.610 C 269.820 270.708,268.800 272.596,268.800 273.661 C 268.800 274.068,268.620 274.400,268.400 274.400 C 268.180 274.400,268.000 274.940,268.000 275.600 C 268.000 276.533,267.822 276.800,267.200 276.800 C 266.519 276.800,266.400 277.067,266.400 278.600 C 266.400 279.590,266.220 280.400,266.000 280.400 C 265.771 280.400,265.600 281.600,265.600 283.200 C 265.600 284.800,265.429 286.000,265.200 286.000 C 264.949 286.000,264.800 288.533,264.800 292.800 C 264.800 297.369,264.941 299.600,265.229 299.600 C 265.464 299.600,265.387 299.870,265.057 300.200 C 264.727 300.530,264.251 300.800,264.000 300.800 C 263.410 300.800,262.400 301.810,262.400 302.400 C 262.400 302.889,261.427 304.000,261.000 304.000 C 260.507 304.000,259.600 305.148,259.600 305.771 C 259.600 306.117,259.418 306.400,259.195 306.400 C 258.925 306.400,258.795 315.289,258.806 333.000 C 258.816 349.955,258.963 359.600,259.211 359.600 C 259.425 359.600,259.600 360.140,259.600 360.800 C 259.600 361.813,259.756 362.000,260.600 362.000 C 261.333 362.000,261.600 362.213,261.600 362.800 C 261.600 363.240,261.780 363.600,262.000 363.600 C 262.220 363.600,262.400 363.883,262.400 364.229 C 262.400 365.037,263.363 366.000,264.171 366.000 C 264.517 366.000,264.800 366.180,264.800 366.400 C 264.800 366.620,265.160 366.800,265.600 366.800 C 266.040 366.800,266.400 366.980,266.400 367.200 C 266.400 367.420,266.720 367.600,267.112 367.600 C 267.503 367.600,268.083 367.960,268.400 368.400 C 268.970 369.191,269.435 369.200,310.800 369.200 C 352.165 369.200,352.630 369.191,353.200 368.400 C 353.517 367.960,354.187 367.600,354.688 367.600 C 355.190 367.600,355.600 367.420,355.600 367.200 C 355.600 366.980,355.960 366.800,356.400 366.800 C 356.840 366.800,357.200 366.620,357.200 366.400 C 357.200 366.180,357.560 366.000,358.000 366.000 C 358.500 366.000,358.800 365.733,358.800 365.288 C 358.800 364.897,359.160 364.317,359.600 364.000 C 360.040 363.683,360.400 363.103,360.400 362.712 C 360.400 362.267,360.700 362.000,361.200 362.000 C 361.822 362.000,362.000 361.733,362.000 360.800 C 362.000 360.140,362.180 359.600,362.400 359.600 C 362.663 359.600,362.800 350.541,362.800 333.224 C 362.800 316.071,362.660 306.761,362.400 306.600 C 362.180 306.464,362.000 305.823,362.000 305.176 C 362.000 304.310,361.810 304.000,361.280 304.000 C 360.425 304.000,359.600 303.259,359.600 302.491 C 359.600 301.826,358.630 300.800,358.000 300.800 C 357.749 300.800,357.273 300.530,356.943 300.200 C 356.613 299.870,356.536 299.600,356.771 299.600 C 357.059 299.600,357.200 297.369,357.200 292.800 C 357.200 288.533,357.051 286.000,356.800 286.000 C 356.578 286.000,356.400 284.944,356.400 283.633 C 356.400 282.332,356.230 281.207,356.022 281.133 C 355.814 281.060,355.603 280.066,355.552 278.923 C 355.501 277.781,355.356 276.858,355.230 276.871 C 353.975 277.001,353.600 276.709,353.600 275.600 C 353.600 274.940,353.420 274.400,353.200 274.400 C 352.980 274.400,352.800 273.860,352.800 273.200 C 352.800 272.540,352.620 272.000,352.400 272.000 C 352.180 272.000,352.000 271.640,352.000 271.200 C 352.000 270.667,351.733 270.400,351.200 270.400 C 350.667 270.400,350.400 270.133,350.400 269.600 C 350.400 269.160,350.220 268.800,350.000 268.800 C 349.780 268.800,349.600 268.512,349.600 268.160 C 349.600 267.809,349.060 267.017,348.400 266.400 C 347.740 265.783,347.200 265.067,347.200 264.808 C 347.200 264.549,346.480 263.646,345.600 262.800 C 344.720 261.954,344.000 261.153,344.000 261.018 C 344.000 260.590,341.245 258.000,340.790 258.000 C 340.549 258.000,340.467 257.816,340.606 257.590 C 340.745 257.365,340.711 257.206,340.530 257.237 C 339.771 257.369,338.685 257.182,338.909 256.958 C 339.315 256.552,337.292 254.800,336.418 254.800 C 335.968 254.800,335.600 254.620,335.600 254.400 C 335.600 254.180,335.240 254.000,334.800 254.000 C 334.360 254.000,334.000 253.820,334.000 253.600 C 334.000 253.380,333.640 253.200,333.200 253.200 C 332.667 253.200,332.400 252.933,332.400 252.400 C 332.400 251.778,332.133 251.600,331.200 251.600 C 330.540 251.600,330.000 251.420,330.000 251.200 C 330.000 250.980,329.460 250.800,328.800 250.800 C 328.140 250.800,327.600 250.620,327.600 250.400 C 327.600 250.180,326.891 250.000,326.024 250.000 C 325.157 250.000,324.336 249.820,324.200 249.600 C 324.064 249.380,323.333 249.200,322.576 249.200 C 321.819 249.200,321.200 249.020,321.200 248.800 C 321.200 248.544,317.533 248.400,311.000 248.400 C 304.467 248.400,300.800 248.544,300.800 248.800 M318.000 266.800 C 318.000 267.020,318.720 267.200,319.600 267.200 C 320.480 267.200,321.200 267.380,321.200 267.600 C 321.200 267.820,321.520 268.000,321.912 268.000 C 322.303 268.000,322.883 268.360,323.200 268.800 C 323.517 269.240,324.097 269.600,324.488 269.600 C 324.880 269.600,325.200 269.780,325.200 270.000 C 325.200 270.220,325.482 270.400,325.826 270.400 C 326.170 270.400,327.329 271.300,328.400 272.400 C 329.471 273.500,330.630 274.400,330.974 274.400 C 331.318 274.400,331.600 274.720,331.600 275.112 C 331.600 275.503,331.960 276.083,332.400 276.400 C 332.840 276.717,333.200 277.297,333.200 277.688 C 333.200 278.080,333.470 278.400,333.800 278.400 C 334.130 278.400,334.400 278.720,334.400 279.112 C 334.400 279.503,334.760 280.083,335.200 280.400 C 335.720 280.775,336.000 281.435,336.000 282.288 C 336.000 283.010,336.180 283.600,336.400 283.600 C 336.620 283.600,336.800 284.320,336.800 285.200 C 336.800 286.080,336.980 286.800,337.200 286.800 C 337.446 286.800,337.600 288.827,337.600 292.080 C 337.600 296.187,337.493 297.253,337.120 296.880 C 336.756 296.516,330.302 296.400,310.520 296.400 L 284.400 296.400 284.400 291.600 C 284.400 288.960,284.543 286.800,284.718 286.800 C 284.893 286.800,285.082 286.130,285.137 285.312 C 285.192 284.494,285.364 283.729,285.520 283.612 C 285.676 283.495,285.865 282.865,285.942 282.212 C 286.018 281.559,286.422 280.728,286.840 280.365 C 287.258 280.003,287.600 279.412,287.600 279.053 C 287.600 278.694,287.780 278.400,288.000 278.400 C 288.220 278.400,288.400 278.117,288.400 277.771 C 288.400 277.426,289.917 275.626,291.771 273.771 C 293.626 271.917,295.426 270.400,295.771 270.400 C 296.117 270.400,296.400 270.220,296.400 270.000 C 296.400 269.780,296.694 269.600,297.053 269.600 C 297.412 269.600,298.027 269.230,298.419 268.778 C 298.812 268.325,299.508 267.927,299.966 267.893 C 300.425 267.858,300.800 267.688,300.800 267.515 C 300.800 267.342,301.329 267.200,301.976 267.200 C 302.623 267.200,303.264 267.020,303.400 266.800 C 303.550 266.557,306.471 266.400,310.824 266.400 C 315.341 266.400,318.000 266.548,318.000 266.800 M312.000 316.400 C 312.000 316.620,312.720 316.800,313.600 316.800 C 314.480 316.800,315.200 316.980,315.200 317.200 C 315.200 317.420,315.650 317.600,316.200 317.600 C 316.750 317.600,317.200 317.792,317.200 318.026 C 317.200 318.260,318.100 319.329,319.200 320.400 C 320.767 321.926,321.200 322.622,321.200 323.611 C 321.200 324.538,321.413 324.931,322.000 325.084 C 322.686 325.263,322.800 325.630,322.800 327.647 C 322.800 329.733,322.709 330.000,322.000 330.000 C 321.378 330.000,321.200 330.267,321.200 331.200 C 321.200 331.860,321.020 332.400,320.800 332.400 C 320.580 332.400,320.400 332.768,320.400 333.218 C 320.400 334.086,318.742 336.000,317.990 336.000 C 316.711 336.000,316.423 337.143,316.312 342.660 C 316.228 346.832,316.077 348.175,315.700 348.100 C 315.425 348.045,315.200 348.281,315.200 348.624 C 315.200 348.967,315.032 349.144,314.827 349.017 C 314.622 348.890,314.397 349.284,314.327 349.893 C 314.079 352.056,307.200 351.607,307.200 349.429 C 307.200 349.067,306.861 348.800,306.400 348.800 C 305.637 348.800,305.600 348.533,305.600 342.971 C 305.600 337.108,305.347 336.000,304.010 336.000 C 302.836 336.000,300.800 332.959,300.800 331.205 C 300.800 330.542,300.665 330.021,300.500 330.047 C 299.003 330.284,298.800 329.992,298.800 327.600 C 298.800 325.307,298.844 325.200,299.800 325.200 C 300.720 325.200,300.800 325.055,300.800 323.376 C 300.800 322.263,300.956 321.649,301.200 321.800 C 301.420 321.936,301.600 321.756,301.600 321.400 C 301.600 321.044,301.735 320.835,301.900 320.934 C 302.291 321.171,303.226 320.160,302.909 319.843 C 302.776 319.709,302.977 319.600,303.357 319.600 C 303.737 319.600,303.936 319.420,303.800 319.200 C 303.664 318.980,303.833 318.800,304.176 318.800 C 304.519 318.800,304.800 318.530,304.800 318.200 C 304.800 317.867,305.156 317.600,305.600 317.600 C 306.040 317.600,306.400 317.420,306.400 317.200 C 306.400 316.980,307.120 316.800,308.000 316.800 C 308.880 316.800,309.600 316.620,309.600 316.400 C 309.600 316.180,310.140 316.000,310.800 316.000 C 311.460 316.000,312.000 316.180,312.000 316.400 " stroke="none" fill="#747474" fill-rule="evenodd"></path><path id="path1" d="M320.400 38.925 C 320.400 38.994,320.985 39.579,321.700 40.225 L 323.000 41.400 321.825 40.100 C 320.730 38.888,320.400 38.616,320.400 38.925 M57.775 58.100 L 56.600 59.400 57.900 58.225 C 59.112 57.130,59.384 56.800,59.075 56.800 C 59.006 56.800,58.421 57.385,57.775 58.100 M84.975 85.300 L 83.800 86.600 85.100 85.425 C 86.312 84.330,86.584 84.000,86.275 84.000 C 86.206 84.000,85.621 84.585,84.975 85.300 M209.200 95.325 C 209.200 95.394,209.785 95.979,210.500 96.625 L 211.800 97.800 210.625 96.500 C 209.530 95.288,209.200 95.016,209.200 95.325 M38.800 320.525 C 38.800 320.594,39.385 321.179,40.100 321.825 L 41.400 323.000 40.225 321.700 C 39.130 320.488,38.800 320.216,38.800 320.525 " stroke="none" fill="#787474" fill-rule="evenodd"></path><path id="path2" d="M320.400 38.925 C 320.400 38.994,320.985 39.579,321.700 40.225 L 323.000 41.400 321.825 40.100 C 320.730 38.888,320.400 38.616,320.400 38.925 M57.775 58.100 L 56.600 59.400 57.900 58.225 C 59.112 57.130,59.384 56.800,59.075 56.800 C 59.006 56.800,58.421 57.385,57.775 58.100 M84.975 85.300 L 83.800 86.600 85.100 85.425 C 86.312 84.330,86.584 84.000,86.275 84.000 C 86.206 84.000,85.621 84.585,84.975 85.300 M209.200 95.325 C 209.200 95.394,209.785 95.979,210.500 96.625 L 211.800 97.800 210.625 96.500 C 209.530 95.288,209.200 95.016,209.200 95.325 M38.800 320.525 C 38.800 320.594,39.385 321.179,40.100 321.825 L 41.400 323.000 40.225 321.700 C 39.130 320.488,38.800 320.216,38.800 320.525 " stroke="none" fill="#787474" fill-rule="evenodd"></path><path id="path3" d="M320.400 38.925 C 320.400 38.994,320.985 39.579,321.700 40.225 L 323.000 41.400 321.825 40.100 C 320.730 38.888,320.400 38.616,320.400 38.925 M57.775 58.100 L 56.600 59.400 57.900 58.225 C 59.112 57.130,59.384 56.800,59.075 56.800 C 59.006 56.800,58.421 57.385,57.775 58.100 M84.975 85.300 L 83.800 86.600 85.100 85.425 C 86.312 84.330,86.584 84.000,86.275 84.000 C 86.206 84.000,85.621 84.585,84.975 85.300 M209.200 95.325 C 209.200 95.394,209.785 95.979,210.500 96.625 L 211.800 97.800 210.625 96.500 C 209.530 95.288,209.200 95.016,209.200 95.325 M38.800 320.525 C 38.800 320.594,39.385 321.179,40.100 321.825 L 41.400 323.000 40.225 321.700 C 39.130 320.488,38.800 320.216,38.800 320.525 " stroke="none" fill="#787474" fill-rule="evenodd"></path><path id="path4" d="M320.400 38.925 C 320.400 38.994,320.985 39.579,321.700 40.225 L 323.000 41.400 321.825 40.100 C 320.730 38.888,320.400 38.616,320.400 38.925 M57.775 58.100 L 56.600 59.400 57.900 58.225 C 59.112 57.130,59.384 56.800,59.075 56.800 C 59.006 56.800,58.421 57.385,57.775 58.100 M84.975 85.300 L 83.800 86.600 85.100 85.425 C 86.312 84.330,86.584 84.000,86.275 84.000 C 86.206 84.000,85.621 84.585,84.975 85.300 M209.200 95.325 C 209.200 95.394,209.785 95.979,210.500 96.625 L 211.800 97.800 210.625 96.500 C 209.530 95.288,209.200 95.016,209.200 95.325 M38.800 320.525 C 38.800 320.594,39.385 321.179,40.100 321.825 L 41.400 323.000 40.225 321.700 C 39.130 320.488,38.800 320.216,38.800 320.525 " stroke="none" fill="#787474" fill-rule="evenodd"></path></g></svg>