<svg id="svg" version="1.1" xmlns="http://www.w3.org/2000/svg" xmlns:xlink="http://www.w3.org/1999/xlink" width="400" height="287.67123287671234" viewBox="0, 0, 400,287.67123287671234"><g id="svgg"><path id="path0" d="M257.698 81.948 C 255.040 82.127,252.534 82.644,251.274 83.275 C 250.534 83.645,248.818 84.291,247.461 84.709 C 245.857 85.204,244.778 85.719,244.378 86.178 C 244.040 86.567,243.136 87.203,242.370 87.592 C 241.560 88.002,239.548 89.701,237.564 91.651 L 234.150 95.005 232.808 94.821 C 231.522 94.644,231.433 94.568,230.642 93.001 C 229.822 91.377,229.285 90.647,228.910 90.647 C 228.802 90.647,228.034 90.026,227.202 89.266 C 226.365 88.501,225.169 87.728,224.521 87.534 C 223.878 87.341,222.921 86.785,222.394 86.297 C 221.766 85.716,219.998 84.855,217.265 83.801 L 213.094 82.191 206.281 82.080 C 196.315 81.918,192.637 82.690,191.349 85.215 L 190.748 86.392 191.336 86.939 C 191.658 87.240,192.974 87.737,194.258 88.044 C 195.543 88.351,196.745 88.724,196.930 88.874 C 197.663 89.469,199.368 90.302,200.250 90.495 C 200.778 90.611,201.705 91.230,202.389 91.924 C 203.054 92.598,204.050 93.321,204.604 93.532 C 205.158 93.744,206.129 94.353,206.763 94.886 C 208.439 96.299,208.544 96.375,209.310 96.724 C 209.694 96.899,210.161 97.327,210.347 97.674 C 210.533 98.022,211.143 98.553,211.701 98.854 C 212.260 99.155,213.093 99.948,213.553 100.617 C 214.013 101.285,214.648 101.914,214.965 102.015 C 215.281 102.115,215.540 102.301,215.540 102.427 C 215.540 102.554,216.252 103.387,217.122 104.279 C 217.993 105.170,218.705 106.002,218.705 106.128 C 218.705 106.254,219.244 106.933,219.903 107.639 C 220.561 108.344,221.395 109.505,221.754 110.220 C 222.114 110.934,222.752 111.841,223.172 112.234 C 223.592 112.628,224.102 113.348,224.306 113.834 C 224.509 114.320,225.080 115.178,225.574 115.740 C 226.101 116.341,226.721 117.579,227.076 118.741 C 227.408 119.829,227.973 121.043,228.332 121.439 C 229.199 122.395,229.831 123.751,230.070 125.169 C 230.178 125.806,230.384 126.401,230.529 126.490 C 230.673 126.580,230.791 126.846,230.791 127.081 C 230.791 127.317,231.055 128.054,231.378 128.719 C 232.001 130.003,232.620 132.471,233.089 135.540 C 233.557 138.599,233.991 140.555,234.278 140.902 C 234.570 141.256,235.213 148.103,235.152 150.216 C 235.057 153.500,234.478 160.152,234.263 160.420 C 234.003 160.746,233.525 162.736,232.947 165.899 C 232.119 170.429,231.870 171.511,231.658 171.511 C 231.535 171.511,231.083 172.644,230.653 174.029 C 229.740 176.966,229.051 178.705,228.799 178.705 C 228.517 178.705,227.682 180.462,227.356 181.742 C 227.192 182.383,226.604 183.440,226.047 184.090 C 225.491 184.740,225.036 185.355,225.036 185.457 C 225.036 186.053,223.779 188.242,223.101 188.829 C 222.662 189.209,222.051 190.008,221.743 190.605 C 221.225 191.613,220.833 192.095,218.315 194.820 C 217.803 195.374,217.013 196.345,216.559 196.978 C 215.659 198.235,214.785 199.115,213.151 200.411 C 211.003 202.114,210.812 202.971,210.887 210.573 C 210.955 217.501,211.088 218.458,212.054 218.975 C 212.813 219.382,237.354 219.397,238.420 218.992 C 240.151 218.334,240.019 222.258,240.084 169.433 L 240.144 121.007 240.989 119.281 C 241.901 117.418,246.614 112.403,248.793 110.977 C 252.596 108.488,260.386 108.676,262.767 111.313 C 263.303 111.907,264.033 112.596,264.391 112.844 C 264.792 113.122,265.317 114.110,265.762 115.425 C 266.159 116.596,266.623 117.799,266.794 118.097 C 267.876 119.987,268.016 121.436,267.980 130.360 C 267.864 159.420,267.920 217.810,268.063 218.184 C 268.455 219.206,269.428 219.281,282.445 219.281 L 295.222 219.281 295.963 218.594 L 296.703 217.908 296.684 169.415 C 296.664 118.027,296.625 119.679,297.884 118.535 C 298.336 118.126,298.705 117.657,298.705 117.493 C 298.705 117.085,302.675 113.066,303.741 112.395 C 304.216 112.096,304.708 111.677,304.836 111.463 C 305.926 109.632,313.665 108.570,316.858 109.814 C 319.000 110.648,322.628 114.697,323.174 116.861 C 323.927 119.847,324.039 121.432,324.047 129.209 C 324.052 133.719,324.068 137.799,324.084 138.273 C 324.100 138.748,324.090 156.851,324.063 178.502 C 324.021 211.462,324.077 217.932,324.407 218.261 C 325.731 219.586,351.576 219.804,352.790 218.501 L 353.381 217.866 353.381 164.668 C 353.381 108.655,353.410 110.052,352.239 108.345 C 351.896 107.845,351.138 105.512,350.940 104.346 C 350.740 103.167,350.236 102.203,349.198 101.007 C 348.855 100.612,348.402 99.640,348.193 98.849 C 347.963 97.978,347.379 96.912,346.712 96.147 C 346.107 95.452,345.612 94.730,345.612 94.542 C 345.612 94.188,344.425 92.950,344.085 92.950 C 343.755 92.950,342.734 91.975,342.734 91.660 C 342.734 91.495,342.328 91.038,341.832 90.644 C 341.337 90.250,340.462 89.512,339.890 89.004 C 339.317 88.496,338.230 87.754,337.474 87.354 C 336.198 86.679,335.828 86.427,334.874 85.583 C 334.677 85.408,333.354 84.876,331.934 84.400 C 330.514 83.924,328.631 83.264,327.749 82.933 C 324.879 81.859,312.566 81.514,310.072 82.438 C 309.535 82.637,308.251 83.164,306.906 83.738 C 305.755 84.228,303.481 84.892,302.951 84.892 C 302.651 84.892,301.826 85.456,301.117 86.146 C 300.407 86.836,299.317 87.553,298.694 87.739 C 297.649 88.052,296.060 89.466,292.899 92.897 C 292.476 93.357,291.460 93.952,290.642 94.219 L 289.155 94.705 288.350 93.900 C 287.907 93.456,286.747 92.381,285.773 91.511 C 284.799 90.640,283.395 89.378,282.653 88.705 C 281.912 88.032,281.155 87.482,280.972 87.482 C 280.788 87.482,280.039 86.987,279.307 86.382 C 278.450 85.674,277.233 85.052,275.894 84.638 C 274.749 84.285,273.183 83.678,272.413 83.290 C 270.331 82.241,263.117 81.583,257.698 81.948 " stroke="none" fill="#0fa259" fill-rule="evenodd"></path><path id="path1" d="M130.177 82.925 C 129.839 83.090,129.428 83.519,129.263 83.880 C 129.099 84.241,128.444 84.907,127.808 85.361 C 127.171 85.815,126.584 86.449,126.502 86.770 C 126.420 87.090,125.838 87.673,125.210 88.065 C 124.581 88.457,123.934 89.063,123.771 89.413 C 123.609 89.762,122.953 90.395,122.314 90.818 C 121.674 91.241,121.151 91.701,121.151 91.839 C 121.151 92.225,119.687 93.782,119.166 93.950 C 118.913 94.032,118.484 94.489,118.213 94.966 C 117.943 95.443,117.263 96.103,116.702 96.434 C 116.142 96.765,115.683 97.169,115.683 97.333 C 115.683 97.649,113.763 99.563,113.433 99.576 C 113.325 99.580,112.926 100.089,112.545 100.707 C 112.164 101.325,111.571 101.901,111.227 101.988 C 110.883 102.074,110.456 102.466,110.277 102.859 C 110.098 103.252,109.460 103.899,108.860 104.296 C 108.261 104.694,107.448 105.541,107.054 106.179 C 106.661 106.816,106.179 107.338,105.984 107.338 C 105.789 107.338,105.205 107.920,104.685 108.630 C 104.166 109.341,103.482 109.996,103.165 110.085 C 102.849 110.175,102.218 110.769,101.764 111.405 C 101.310 112.041,100.663 112.690,100.325 112.846 C 99.988 113.003,99.392 113.646,99.000 114.274 C 98.608 114.903,98.019 115.485,97.691 115.567 C 97.362 115.649,96.781 116.223,96.398 116.842 C 96.016 117.461,95.370 118.105,94.964 118.273 C 94.558 118.442,93.914 119.084,93.533 119.700 C 93.152 120.317,92.545 120.955,92.185 121.119 C 91.825 121.284,91.234 121.875,90.873 122.434 C 90.511 122.993,89.996 123.523,89.727 123.611 C 89.458 123.699,88.701 124.411,88.045 125.195 C 87.389 125.978,86.682 126.619,86.474 126.619 C 86.265 126.619,85.828 127.169,85.502 127.842 C 84.535 129.836,81.325 132.562,80.268 132.286 C 79.904 132.190,79.671 132.337,79.542 132.746 C 79.437 133.076,79.030 133.613,78.638 133.939 C 78.246 134.266,77.712 134.759,77.452 135.037 C 77.191 135.314,76.660 135.832,76.270 136.188 C 75.533 136.860,75.336 137.061,72.197 140.340 C 71.150 141.434,69.953 142.552,69.535 142.826 C 69.118 143.099,68.777 143.455,68.777 143.618 C 68.777 143.780,67.773 144.868,66.547 146.036 C 65.320 147.204,64.122 148.365,63.885 148.616 C 63.647 148.868,63.019 149.492,62.489 150.004 C 61.959 150.516,61.182 151.304,60.762 151.755 C 59.584 153.021,56.555 156.033,55.641 156.846 C 55.190 157.248,54.043 158.418,53.094 159.447 C 52.144 160.476,50.974 161.593,50.493 161.930 C 50.013 162.266,49.455 162.844,49.253 163.213 C 49.052 163.583,48.372 164.205,47.742 164.597 C 46.432 165.412,46.054 166.390,46.646 167.437 L 47.050 168.151 63.091 168.083 L 79.133 168.016 80.392 166.704 C 81.085 165.983,81.940 165.118,82.292 164.782 C 82.644 164.447,83.369 163.719,83.902 163.165 C 84.436 162.612,85.081 161.964,85.337 161.727 C 85.593 161.489,86.371 160.719,87.066 160.015 C 89.313 157.738,92.319 158.815,93.343 162.264 C 93.861 164.007,94.262 164.781,95.138 165.725 C 95.506 166.122,95.889 166.818,95.988 167.272 C 96.242 168.427,96.705 169.215,97.717 170.216 C 98.243 170.736,98.801 171.765,99.121 172.806 C 99.446 173.861,99.964 174.812,100.455 175.252 C 100.897 175.647,101.546 176.683,101.899 177.554 C 102.251 178.424,102.847 179.473,103.223 179.883 C 103.599 180.294,104.033 181.087,104.187 181.645 C 104.341 182.204,104.964 183.227,105.571 183.920 C 106.189 184.625,106.899 185.877,107.185 186.763 C 107.465 187.633,108.107 188.799,108.610 189.353 C 109.542 190.378,110.019 191.230,110.383 192.518 C 110.494 192.914,111.085 193.806,111.696 194.501 C 112.306 195.196,112.806 195.964,112.806 196.208 C 112.806 196.451,113.310 197.437,113.925 198.397 C 114.541 199.358,115.201 200.638,115.393 201.243 C 115.584 201.847,116.114 202.723,116.571 203.190 C 117.570 204.212,118.273 205.509,118.273 206.328 C 118.273 206.658,118.765 207.441,119.367 208.067 C 119.973 208.698,120.696 209.879,120.989 210.718 C 121.280 211.550,121.868 212.619,122.295 213.094 C 122.722 213.568,123.409 214.689,123.822 215.584 C 124.251 216.517,124.990 217.531,125.553 217.961 L 126.536 218.710 143.544 218.740 C 162.465 218.774,161.947 218.825,160.808 217.026 C 160.491 216.525,160.124 216.115,159.993 216.115 C 159.725 216.115,158.273 213.179,158.273 212.638 C 158.273 212.447,157.826 211.889,157.278 211.397 C 156.595 210.784,156.109 209.955,155.727 208.754 C 155.421 207.792,154.841 206.648,154.438 206.213 C 154.035 205.778,153.624 205.053,153.524 204.601 C 153.425 204.149,152.834 203.200,152.209 202.491 C 151.585 201.782,150.993 200.770,150.892 200.241 C 150.639 198.911,150.011 197.745,149.073 196.863 C 148.610 196.428,148.058 195.404,147.755 194.419 C 147.468 193.485,146.915 192.385,146.527 191.972 C 145.813 191.215,144.468 188.630,144.463 188.006 C 144.462 187.820,144.154 187.427,143.780 187.133 C 143.019 186.534,142.341 185.326,142.037 184.029 C 141.925 183.554,141.474 182.712,141.034 182.158 C 140.594 181.604,139.947 180.504,139.598 179.712 C 139.248 178.921,138.644 177.941,138.255 177.535 C 137.866 177.129,137.285 176.028,136.964 175.089 C 136.618 174.078,136.041 173.087,135.551 172.660 C 134.762 171.974,133.826 169.921,133.817 168.858 C 133.815 168.585,133.412 168.067,132.922 167.706 C 131.863 166.927,131.360 166.029,131.098 164.446 C 130.960 163.617,130.577 162.963,129.769 162.179 C 129.144 161.572,128.633 160.892,128.633 160.666 C 128.633 159.993,127.569 157.866,126.954 157.309 C 126.639 157.024,126.208 156.198,125.997 155.474 C 125.785 154.749,125.275 153.795,124.864 153.354 C 123.728 152.134,123.272 151.328,123.054 150.156 C 122.928 149.474,122.451 148.680,121.736 147.957 C 120.857 147.069,120.553 146.485,120.323 145.238 C 120.096 144.009,119.782 143.396,118.936 142.525 C 118.314 141.886,117.616 140.746,117.319 139.887 C 117.031 139.055,116.415 138.028,115.950 137.604 C 115.364 137.070,115.020 136.395,114.825 135.396 C 114.672 134.604,114.468 133.684,114.372 133.350 C 114.245 132.904,114.441 132.523,115.112 131.911 C 116.114 130.997,117.218 129.900,118.173 128.870 C 118.514 128.502,119.034 128.007,119.328 127.770 C 119.623 127.532,120.042 126.991,120.258 126.566 C 120.475 126.141,121.024 125.640,121.477 125.452 C 121.931 125.264,122.302 125.002,122.302 124.871 C 122.302 124.515,126.762 120.000,127.113 120.000 C 127.280 120.000,127.647 119.644,127.930 119.209 C 128.576 118.213,132.227 114.532,132.569 114.532 C 132.708 114.532,133.013 114.245,133.246 113.894 C 133.877 112.942,138.376 108.489,138.706 108.489 C 138.864 108.489,138.993 108.307,138.993 108.084 C 138.993 107.862,139.634 107.143,140.417 106.487 C 141.200 105.831,141.911 105.074,141.997 104.803 C 142.083 104.533,142.672 103.991,143.307 103.599 C 143.941 103.207,144.460 102.765,144.460 102.618 C 144.460 102.242,149.232 97.554,149.614 97.554 C 149.787 97.554,149.928 97.385,149.928 97.178 C 149.928 96.749,153.794 92.923,154.737 92.419 C 155.078 92.236,155.445 91.808,155.554 91.466 C 155.754 90.835,155.945 90.636,158.543 88.345 C 159.351 87.633,160.560 86.529,161.229 85.893 C 161.898 85.256,162.770 84.524,163.165 84.265 C 163.761 83.876,163.830 83.703,163.566 83.264 C 163.190 82.639,131.429 82.316,130.177 82.925 " stroke="none" fill="#fc0606" fill-rule="evenodd"></path><path id="path2" d="M0.000 143.885 L 0.000 287.770 200.000 287.770 L 400.000 287.770 400.000 143.885 L 400.000 0.000 200.000 0.000 L 0.000 0.000 0.000 143.885 M66.494 64.306 C 67.354 64.725,68.705 65.300,69.496 65.584 C 70.288 65.867,71.464 66.605,72.110 67.222 C 72.756 67.840,73.598 68.629,73.981 68.975 C 76.191 70.976,76.833 71.878,77.432 73.820 C 77.772 74.924,78.136 75.892,78.242 75.971 C 79.935 77.244,79.940 86.895,78.246 86.905 C 78.152 86.906,77.764 87.901,77.383 89.116 C 76.798 90.984,76.435 91.591,75.036 93.043 C 74.126 93.987,73.381 94.853,73.381 94.967 C 73.381 95.081,72.131 95.917,70.603 96.824 C 67.307 98.780,63.254 99.632,60.168 99.016 C 59.311 98.845,58.077 98.705,57.426 98.705 C 56.330 98.705,55.226 98.219,54.532 97.430 C 54.374 97.250,53.503 96.732,52.596 96.278 C 51.690 95.823,50.584 95.051,50.139 94.560 C 48.561 92.821,46.331 89.743,46.331 89.305 C 46.331 89.061,45.941 88.283,45.465 87.577 C 43.661 84.905,43.433 77.250,45.119 75.981 C 45.434 75.744,46.289 73.906,46.496 73.022 C 46.598 72.587,47.217 71.660,47.873 70.962 C 48.528 70.263,49.324 69.358,49.640 68.950 C 49.957 68.541,50.383 68.206,50.587 68.204 C 50.791 68.203,51.439 67.702,52.026 67.091 C 52.613 66.480,53.547 65.813,54.101 65.610 C 54.655 65.407,55.885 64.878,56.835 64.436 C 59.888 63.013,63.733 62.962,66.494 64.306 M163.899 82.200 C 165.044 83.437,164.782 84.245,162.867 85.376 C 162.398 85.653,161.940 86.111,161.851 86.393 C 161.761 86.676,161.211 87.255,160.628 87.682 C 160.045 88.108,158.688 89.370,157.613 90.487 C 156.537 91.604,155.545 92.627,155.408 92.760 C 155.271 92.892,154.059 94.102,152.713 95.447 C 151.368 96.792,150.117 98.043,149.933 98.227 C 145.812 102.341,142.465 105.724,142.001 106.245 C 141.677 106.609,141.094 107.177,140.706 107.507 C 140.318 107.838,139.725 108.421,139.389 108.802 C 139.053 109.184,137.823 110.420,136.655 111.549 C 135.488 112.679,134.259 113.909,133.925 114.283 C 133.591 114.658,132.361 115.891,131.191 117.025 C 130.022 118.158,128.794 119.388,128.464 119.759 C 128.134 120.129,126.256 121.988,124.291 123.891 C 122.327 125.794,120.496 127.694,120.223 128.114 C 119.951 128.534,119.497 128.952,119.216 129.044 C 118.935 129.136,118.409 129.669,118.048 130.228 C 117.687 130.787,117.104 131.378,116.753 131.541 C 114.980 132.366,114.918 135.698,116.648 137.122 C 117.360 137.709,118.561 140.043,118.561 140.841 C 118.561 141.083,118.900 141.504,119.315 141.775 C 120.120 142.303,120.941 143.942,121.259 145.655 C 121.380 146.305,121.721 146.881,122.151 147.163 C 122.831 147.608,123.492 148.766,123.895 150.216 C 124.005 150.612,124.582 151.583,125.178 152.374 C 125.773 153.165,126.411 154.286,126.596 154.864 C 126.781 155.442,127.218 156.227,127.567 156.607 C 128.292 157.396,129.209 159.229,129.209 159.888 C 129.209 160.132,129.601 160.724,130.080 161.204 C 131.170 162.294,131.676 163.270,131.924 164.763 C 132.062 165.591,132.444 166.245,133.249 167.026 C 134.226 167.974,134.957 169.468,134.962 170.528 C 134.963 170.699,135.461 171.378,136.069 172.036 C 136.677 172.695,137.322 173.728,137.504 174.334 C 137.685 174.939,138.273 176.008,138.810 176.710 C 139.348 177.412,139.938 178.459,140.123 179.037 C 140.307 179.615,140.776 180.431,141.165 180.851 C 142.039 181.794,142.579 182.820,142.989 184.317 C 143.162 184.950,143.731 185.921,144.254 186.475 C 144.776 187.029,145.441 188.111,145.731 188.879 C 146.021 189.648,146.613 190.684,147.047 191.181 C 147.481 191.679,147.934 192.410,148.053 192.806 C 148.511 194.323,149.427 196.068,150.087 196.680 C 150.466 197.031,151.066 198.083,151.422 199.018 C 152.030 200.618,152.207 200.938,152.967 201.809 C 153.135 202.001,153.636 202.903,154.080 203.813 C 154.524 204.723,154.973 205.468,155.076 205.468 C 155.368 205.468,156.198 207.207,156.532 208.516 C 156.699 209.170,157.273 210.147,157.823 210.714 C 158.368 211.275,159.023 212.235,159.278 212.846 C 159.533 213.457,160.177 214.604,160.710 215.396 C 162.006 217.325,162.144 217.906,161.492 218.711 L 160.956 219.372 143.466 219.333 C 127.104 219.297,125.917 219.260,125.074 218.769 C 124.264 218.298,122.888 216.167,122.881 215.372 C 122.879 215.200,122.370 214.510,121.750 213.838 C 121.006 213.033,120.509 212.144,120.289 211.228 C 120.072 210.324,119.654 209.571,119.090 209.068 C 118.613 208.644,118.035 207.822,117.804 207.242 C 117.070 205.397,116.725 204.771,115.911 203.808 C 115.474 203.290,115.032 202.513,114.930 202.081 C 114.827 201.649,114.226 200.527,113.593 199.589 C 112.961 198.650,112.319 197.420,112.167 196.855 C 112.016 196.290,111.406 195.309,110.812 194.676 C 110.218 194.043,109.499 192.878,109.215 192.086 C 108.930 191.295,108.328 190.277,107.877 189.824 C 107.425 189.372,106.914 188.477,106.742 187.836 C 106.408 186.596,105.801 185.526,104.939 184.656 C 104.649 184.363,104.131 183.519,103.788 182.781 C 103.445 182.043,102.830 180.986,102.421 180.432 C 102.012 179.878,101.442 178.777,101.155 177.986 C 100.867 177.194,100.230 176.151,99.740 175.667 C 99.172 175.107,98.651 174.132,98.308 172.988 C 97.944 171.771,97.540 171.038,97.060 170.724 C 96.670 170.469,96.045 169.567,95.670 168.720 C 95.296 167.873,94.602 166.632,94.128 165.964 C 93.655 165.295,93.185 164.360,93.085 163.885 C 92.806 162.573,92.099 161.376,91.109 160.543 C 89.433 159.131,89.167 159.187,86.998 161.398 C 85.919 162.499,84.865 163.573,84.655 163.786 C 82.454 166.025,80.637 167.701,80.286 167.818 C 79.911 167.943,79.838 171.128,79.712 192.894 L 79.568 217.826 78.913 218.481 L 78.257 219.137 61.729 219.137 C 46.246 219.137,45.168 219.104,44.687 218.623 C 44.197 218.134,44.169 215.475,44.100 163.227 C 44.025 106.440,44.040 105.646,45.182 105.035 C 46.410 104.377,78.182 104.674,78.810 105.349 C 79.685 106.287,79.742 107.189,79.696 119.406 C 79.645 132.993,79.587 132.736,82.143 130.216 C 82.865 129.504,83.553 128.921,83.671 128.920 C 83.789 128.920,84.233 128.370,84.660 127.697 C 85.086 127.025,85.721 126.281,86.071 126.043 C 86.422 125.806,86.915 125.366,87.167 125.067 C 87.419 124.767,88.597 123.578,89.784 122.425 C 90.971 121.272,92.175 120.092,92.459 119.804 C 94.165 118.076,97.578 114.632,97.827 114.388 C 97.989 114.230,98.562 113.647,99.099 113.094 C 99.637 112.540,100.215 111.957,100.385 111.799 C 100.554 111.640,101.797 110.410,103.147 109.065 C 104.497 107.719,105.831 106.391,106.110 106.113 C 107.142 105.086,119.578 92.631,119.856 92.347 C 120.844 91.335,130.088 82.004,130.145 81.960 C 130.184 81.931,137.403 81.829,146.187 81.734 C 154.971 81.640,162.391 81.535,162.676 81.501 C 162.960 81.467,163.511 81.781,163.899 82.200 M269.104 82.309 C 270.154 82.461,271.643 82.902,272.413 83.290 C 273.183 83.678,274.749 84.285,275.894 84.638 C 277.233 85.052,278.450 85.674,279.307 86.382 C 280.039 86.987,280.788 87.482,280.972 87.482 C 281.155 87.482,281.912 88.032,282.653 88.705 C 283.395 89.378,284.799 90.640,285.773 91.511 C 286.747 92.381,287.907 93.456,288.350 93.900 L 289.155 94.705 290.642 94.219 C 291.460 93.952,292.476 93.357,292.899 92.897 C 296.060 89.466,297.649 88.052,298.694 87.739 C 299.317 87.553,300.407 86.836,301.117 86.146 C 301.826 85.456,302.651 84.892,302.951 84.892 C 303.481 84.892,305.755 84.228,306.906 83.738 C 308.251 83.164,309.535 82.637,310.072 82.438 C 312.566 81.514,324.879 81.859,327.749 82.933 C 328.631 83.264,330.514 83.924,331.934 84.400 C 333.354 84.876,334.677 85.408,334.874 85.583 C 335.828 86.427,336.198 86.679,337.474 87.354 C 338.230 87.754,339.317 88.496,339.890 89.004 C 340.462 89.512,341.337 90.250,341.832 90.644 C 342.328 91.038,342.734 91.495,342.734 91.660 C 342.734 91.975,343.755 92.950,344.085 92.950 C 344.425 92.950,345.612 94.188,345.612 94.542 C 345.612 94.730,346.107 95.452,346.712 96.147 C 347.379 96.912,347.963 97.978,348.193 98.849 C 348.402 99.640,348.855 100.612,349.198 101.007 C 350.236 102.203,350.740 103.167,350.940 104.346 C 351.138 105.512,351.896 107.845,352.239 108.345 C 353.410 110.052,353.381 108.655,353.381 164.668 L 353.381 217.866 352.790 218.501 C 351.576 219.804,325.731 219.586,324.407 218.261 C 324.077 217.932,324.021 211.462,324.063 178.502 C 324.090 156.851,324.100 138.748,324.084 138.273 C 324.068 137.799,324.052 133.719,324.047 129.209 C 324.035 117.135,323.749 116.022,319.570 111.773 C 317.677 109.849,316.278 109.325,312.957 109.293 C 309.287 109.258,305.555 110.255,304.836 111.463 C 304.708 111.677,304.216 112.096,303.741 112.395 C 302.675 113.066,298.705 117.085,298.705 117.493 C 298.705 117.657,298.336 118.126,297.884 118.535 C 296.625 119.679,296.664 118.027,296.684 169.415 L 296.703 217.908 295.963 218.594 L 295.222 219.281 282.445 219.281 C 269.428 219.281,268.455 219.206,268.063 218.184 C 267.920 217.810,267.864 159.420,267.980 130.360 C 268.016 121.436,267.876 119.987,266.794 118.097 C 266.623 117.799,266.159 116.596,265.762 115.425 C 265.317 114.110,264.792 113.122,264.391 112.844 C 264.033 112.596,263.303 111.907,262.767 111.313 C 260.386 108.676,252.596 108.488,248.793 110.977 C 246.614 112.403,241.901 117.418,240.989 119.281 L 240.144 121.007 240.084 169.433 C 240.019 222.258,240.151 218.334,238.420 218.992 C 237.354 219.397,212.813 219.382,212.054 218.975 C 211.088 218.458,210.955 217.501,210.887 210.573 C 210.812 202.971,211.003 202.114,213.151 200.411 C 214.785 199.115,215.659 198.235,216.559 196.978 C 217.013 196.345,217.803 195.374,218.315 194.820 C 220.833 192.095,221.225 191.613,221.743 190.605 C 222.051 190.008,222.662 189.209,223.101 188.829 C 223.779 188.242,225.036 186.053,225.036 185.457 C 225.036 185.355,225.491 184.740,226.047 184.090 C 226.604 183.440,227.192 182.383,227.356 181.742 C 227.682 180.462,228.517 178.705,228.799 178.705 C 229.051 178.705,229.740 176.966,230.653 174.029 C 231.083 172.644,231.535 171.511,231.658 171.511 C 231.870 171.511,232.119 170.429,232.947 165.899 C 233.525 162.736,234.003 160.746,234.263 160.420 C 234.478 160.152,235.057 153.500,235.152 150.216 C 235.213 148.103,234.570 141.256,234.278 140.902 C 233.991 140.555,233.557 138.599,233.089 135.540 C 232.620 132.471,232.001 130.003,231.378 128.719 C 231.055 128.054,230.791 127.317,230.791 127.081 C 230.791 126.846,230.673 126.580,230.529 126.490 C 230.384 126.401,230.178 125.806,230.070 125.169 C 229.831 123.751,229.199 122.395,228.332 121.439 C 227.973 121.043,227.408 119.829,227.076 118.741 C 226.721 117.579,226.101 116.341,225.574 115.740 C 225.080 115.178,224.509 114.320,224.306 113.834 C 224.102 113.348,223.592 112.628,223.172 112.234 C 222.752 111.841,222.114 110.934,221.754 110.220 C 221.395 109.505,220.561 108.344,219.903 107.639 C 219.244 106.933,218.705 106.254,218.705 106.128 C 218.705 106.002,217.993 105.170,217.122 104.279 C 216.252 103.387,215.540 102.554,215.540 102.427 C 215.540 102.301,215.281 102.115,214.965 102.015 C 214.648 101.914,214.013 101.285,213.553 100.617 C 213.093 99.948,212.260 99.155,211.701 98.854 C 211.143 98.553,210.533 98.022,210.347 97.674 C 210.161 97.327,209.694 96.899,209.310 96.724 C 208.544 96.375,208.439 96.299,206.763 94.886 C 206.129 94.353,205.158 93.744,204.604 93.532 C 204.050 93.321,203.054 92.598,202.389 91.924 C 201.705 91.230,200.778 90.611,200.250 90.495 C 199.368 90.302,197.663 89.469,196.930 88.874 C 196.745 88.724,195.543 88.351,194.258 88.044 C 192.974 87.737,191.658 87.240,191.336 86.939 L 190.748 86.392 191.349 85.215 C 192.637 82.690,196.315 81.918,206.281 82.080 L 213.094 82.191 217.265 83.801 C 219.998 84.855,221.766 85.716,222.394 86.297 C 222.921 86.785,223.878 87.341,224.521 87.534 C 225.169 87.728,226.365 88.501,227.202 89.266 C 228.034 90.026,228.802 90.647,228.910 90.647 C 229.285 90.647,229.822 91.377,230.642 93.001 C 231.433 94.568,231.522 94.644,232.808 94.821 L 234.150 95.005 237.564 91.651 C 239.548 89.701,241.560 88.002,242.370 87.592 C 243.136 87.203,244.040 86.567,244.378 86.178 C 244.778 85.719,245.857 85.204,247.461 84.709 C 248.818 84.291,250.534 83.645,251.274 83.275 C 253.967 81.928,263.063 81.435,269.104 82.309 M172.626 117.963 C 174.137 118.179,175.114 118.509,176.022 119.111 C 176.723 119.575,177.775 120.036,178.360 120.136 C 180.505 120.502,182.421 121.320,183.520 122.339 C 184.139 122.912,184.916 123.468,185.246 123.573 C 185.576 123.677,185.915 123.942,185.999 124.162 C 186.083 124.381,186.863 125.085,187.731 125.727 C 188.599 126.368,189.391 127.148,189.490 127.461 C 189.589 127.773,190.103 128.296,190.632 128.623 C 191.161 128.950,191.806 129.666,192.066 130.214 C 192.326 130.762,192.898 131.603,193.336 132.083 C 193.774 132.563,194.372 133.634,194.664 134.464 C 194.955 135.293,195.550 136.508,195.985 137.165 C 196.807 138.406,197.186 139.666,197.835 143.309 C 198.047 144.496,198.444 146.180,198.719 147.050 C 199.577 149.767,199.580 151.667,198.731 153.890 C 198.321 154.962,197.986 156.143,197.986 156.514 C 197.986 157.663,196.815 162.113,196.273 163.022 C 195.990 163.496,195.519 164.532,195.227 165.324 C 194.935 166.115,194.243 167.256,193.689 167.858 C 193.136 168.461,192.386 169.540,192.023 170.256 C 191.195 171.889,188.328 175.166,187.227 175.739 C 186.770 175.976,186.122 176.451,185.788 176.794 C 185.453 177.137,184.534 177.732,183.744 178.116 C 182.954 178.500,181.762 179.231,181.094 179.741 C 180.427 180.250,179.390 180.817,178.790 181.001 C 177.669 181.344,177.563 181.387,175.108 182.480 C 172.592 183.600,157.550 183.569,157.170 182.443 C 157.118 182.286,156.923 182.157,156.739 182.157 C 156.554 182.156,156.067 181.980,155.657 181.765 C 155.246 181.551,154.409 181.282,153.796 181.167 C 152.485 180.921,151.227 180.309,150.387 179.509 C 150.055 179.193,149.072 178.610,148.201 178.212 C 146.713 177.531,145.966 176.943,143.648 174.625 C 140.918 171.895,140.175 170.981,139.849 169.951 C 139.652 169.330,138.998 168.339,138.395 167.748 C 137.616 166.985,137.160 166.185,136.822 164.991 C 136.560 164.066,135.967 162.827,135.504 162.238 C 134.606 161.096,134.300 160.023,133.635 155.683 C 132.717 149.693,132.693 149.341,133.102 147.982 C 133.318 147.265,133.578 145.952,133.680 145.066 C 133.999 142.303,134.919 139.015,135.643 138.048 C 136.024 137.539,136.426 136.799,136.537 136.403 C 136.893 135.122,137.780 133.359,138.272 132.951 C 138.536 132.732,139.129 131.805,139.591 130.891 C 140.052 129.978,140.686 129.093,141.000 128.925 C 141.315 128.756,141.886 128.157,142.270 127.592 C 142.653 127.027,143.462 126.229,144.066 125.819 C 144.669 125.408,145.470 124.708,145.845 124.263 C 146.219 123.818,146.671 123.453,146.849 123.453 C 147.027 123.453,147.695 122.956,148.334 122.348 C 149.272 121.456,149.968 121.118,151.942 120.597 C 153.288 120.242,154.984 119.573,155.713 119.110 C 158.392 117.406,165.413 116.930,172.626 117.963 " stroke="none" fill="#fafafa" fill-rule="evenodd"></path><path id="path3" d="M59.137 63.485 C 58.820 63.565,57.784 63.993,56.835 64.436 C 55.885 64.878,54.655 65.407,54.101 65.610 C 53.547 65.813,52.613 66.480,52.026 67.091 C 51.439 67.702,50.791 68.203,50.587 68.204 C 50.383 68.206,49.957 68.541,49.640 68.950 C 49.324 69.358,48.528 70.263,47.873 70.962 C 47.217 71.660,46.598 72.587,46.496 73.022 C 46.289 73.906,45.434 75.744,45.119 75.981 C 43.433 77.250,43.661 84.905,45.465 87.577 C 45.941 88.283,46.331 89.061,46.331 89.305 C 46.331 89.743,48.561 92.821,50.139 94.560 C 50.584 95.051,51.690 95.823,52.596 96.278 C 53.503 96.732,54.374 97.250,54.532 97.430 C 55.226 98.219,56.330 98.705,57.426 98.705 C 58.077 98.705,59.311 98.845,60.168 99.016 C 63.254 99.632,67.307 98.780,70.603 96.824 C 72.131 95.917,73.381 95.081,73.381 94.967 C 73.381 94.853,74.126 93.987,75.036 93.043 C 76.435 91.591,76.798 90.984,77.383 89.116 C 77.764 87.901,78.152 86.906,78.246 86.905 C 79.940 86.895,79.935 77.244,78.242 75.971 C 78.136 75.892,77.772 74.924,77.432 73.820 C 76.833 71.878,76.191 70.976,73.981 68.975 C 73.598 68.629,72.756 67.840,72.110 67.222 C 71.464 66.605,70.288 65.867,69.496 65.584 C 68.705 65.300,67.354 64.725,66.494 64.306 C 64.942 63.550,60.724 63.079,59.137 63.485 M45.128 105.048 C 44.049 105.677,44.026 106.965,44.100 163.227 C 44.169 215.475,44.197 218.134,44.687 218.623 C 45.168 219.104,46.246 219.137,61.729 219.137 L 78.257 219.137 78.913 218.481 L 79.568 217.826 79.568 193.014 L 79.568 168.201 63.309 168.174 L 47.050 168.146 46.646 167.434 C 46.054 166.391,46.432 165.412,47.742 164.597 C 48.372 164.205,49.052 163.583,49.253 163.213 C 49.455 162.844,50.013 162.266,50.493 161.930 C 50.974 161.593,52.144 160.476,53.094 159.447 C 54.043 158.418,55.190 157.248,55.641 156.846 C 56.555 156.033,59.584 153.021,60.762 151.755 C 61.182 151.304,61.959 150.516,62.489 150.004 C 63.019 149.492,63.647 148.868,63.885 148.616 C 64.122 148.365,65.320 147.204,66.547 146.036 C 67.773 144.868,68.777 143.780,68.777 143.618 C 68.777 143.455,69.118 143.099,69.535 142.826 C 69.953 142.552,71.150 141.434,72.197 140.340 C 75.336 137.061,75.533 136.860,76.270 136.188 C 76.660 135.832,77.191 135.314,77.452 135.037 C 77.712 134.759,78.239 134.272,78.623 133.953 C 79.368 133.334,80.105 131.625,79.823 131.169 C 79.729 131.018,79.672 125.724,79.696 119.406 C 79.742 107.189,79.685 106.287,78.810 105.349 C 78.186 104.678,46.250 104.393,45.128 105.048 " stroke="none" fill="#0b38a0" fill-rule="evenodd"></path><path id="path4" d="M146.187 81.734 C 137.403 81.829,130.184 81.931,130.145 81.960 C 130.088 82.004,120.844 91.335,119.856 92.347 C 119.578 92.631,107.142 105.086,106.110 106.113 C 105.831 106.391,104.497 107.719,103.147 109.065 C 101.797 110.410,100.554 111.640,100.385 111.799 C 100.215 111.957,99.637 112.540,99.099 113.094 C 98.562 113.647,97.989 114.230,97.827 114.388 C 97.578 114.632,94.165 118.076,92.459 119.804 C 92.175 120.092,90.971 121.272,89.784 122.425 C 88.597 123.578,87.419 124.767,87.167 125.067 C 86.915 125.366,86.422 125.806,86.071 126.043 C 85.721 126.281,85.086 127.026,84.660 127.700 C 84.233 128.374,83.662 128.996,83.389 129.084 C 83.116 129.171,82.633 129.608,82.315 130.053 C 81.998 130.499,81.279 131.082,80.718 131.348 C 79.731 131.816,79.590 132.374,80.459 132.374 C 81.565 132.374,84.648 129.603,85.502 127.842 C 85.828 127.169,86.265 126.619,86.474 126.619 C 86.682 126.619,87.389 125.978,88.045 125.195 C 88.701 124.411,89.458 123.699,89.727 123.611 C 89.996 123.523,90.511 122.993,90.873 122.434 C 91.234 121.875,91.825 121.284,92.185 121.119 C 92.545 120.955,93.152 120.317,93.533 119.700 C 93.914 119.084,94.558 118.442,94.964 118.273 C 95.370 118.105,96.016 117.461,96.398 116.842 C 96.781 116.223,97.362 115.649,97.691 115.567 C 98.019 115.485,98.608 114.903,99.000 114.274 C 99.392 113.646,99.988 113.003,100.325 112.846 C 100.663 112.690,101.310 112.041,101.764 111.405 C 102.218 110.769,102.849 110.175,103.165 110.085 C 103.482 109.996,104.166 109.341,104.685 108.630 C 105.205 107.920,105.789 107.338,105.984 107.338 C 106.179 107.338,106.661 106.816,107.054 106.179 C 107.448 105.541,108.261 104.694,108.860 104.296 C 109.460 103.899,110.098 103.252,110.277 102.859 C 110.456 102.466,110.883 102.074,111.227 101.988 C 111.571 101.901,112.164 101.325,112.545 100.707 C 112.926 100.089,113.325 99.580,113.433 99.576 C 113.763 99.563,115.683 97.649,115.683 97.333 C 115.683 97.169,116.142 96.765,116.702 96.434 C 117.263 96.103,117.943 95.443,118.213 94.966 C 118.484 94.489,118.913 94.032,119.166 93.950 C 119.687 93.782,121.151 92.225,121.151 91.839 C 121.151 91.701,121.674 91.241,122.314 90.818 C 122.953 90.395,123.609 89.762,123.771 89.413 C 123.934 89.063,124.581 88.457,125.210 88.065 C 125.838 87.673,126.420 87.090,126.502 86.770 C 126.584 86.449,127.171 85.815,127.808 85.361 C 128.444 84.907,129.101 84.236,129.268 83.870 C 129.844 82.606,130.252 82.579,147.163 82.658 C 162.438 82.730,163.263 82.760,163.566 83.264 C 163.830 83.703,163.761 83.876,163.165 84.265 C 162.770 84.524,161.898 85.256,161.229 85.893 C 160.560 86.529,159.351 87.633,158.543 88.345 C 155.945 90.636,155.754 90.835,155.554 91.466 C 155.445 91.808,155.078 92.236,154.737 92.419 C 153.794 92.923,149.928 96.749,149.928 97.178 C 149.928 97.385,149.787 97.554,149.614 97.554 C 149.232 97.554,144.460 102.242,144.460 102.618 C 144.460 102.765,143.941 103.207,143.307 103.599 C 142.672 103.991,142.083 104.533,141.997 104.803 C 141.911 105.074,141.200 105.831,140.417 106.487 C 139.634 107.143,138.993 107.862,138.993 108.084 C 138.993 108.307,138.864 108.489,138.706 108.489 C 138.376 108.489,133.877 112.942,133.246 113.894 C 133.013 114.245,132.708 114.532,132.569 114.532 C 132.227 114.532,128.576 118.213,127.930 119.209 C 127.647 119.644,127.280 120.000,127.113 120.000 C 126.762 120.000,122.302 124.515,122.302 124.871 C 122.302 125.002,121.931 125.264,121.477 125.452 C 121.024 125.640,120.475 126.141,120.258 126.566 C 120.042 126.991,119.623 127.532,119.328 127.770 C 119.034 128.007,118.514 128.502,118.173 128.870 C 117.218 129.900,116.114 130.997,115.112 131.911 C 114.441 132.523,114.245 132.904,114.372 133.350 C 114.468 133.684,114.672 134.604,114.825 135.396 C 115.020 136.395,115.364 137.070,115.950 137.604 C 116.415 138.028,117.031 139.055,117.319 139.887 C 117.616 140.746,118.314 141.886,118.936 142.525 C 119.782 143.396,120.096 144.009,120.323 145.238 C 120.553 146.485,120.857 147.069,121.736 147.957 C 122.451 148.680,122.928 149.474,123.054 150.156 C 123.272 151.328,123.728 152.134,124.864 153.354 C 125.275 153.795,125.785 154.749,125.997 155.474 C 126.208 156.198,126.639 157.024,126.954 157.309 C 127.569 157.866,128.633 159.993,128.633 160.666 C 128.633 160.892,129.144 161.572,129.769 162.179 C 130.577 162.963,130.960 163.617,131.098 164.446 C 131.360 166.029,131.863 166.927,132.922 167.706 C 133.412 168.067,133.815 168.585,133.817 168.858 C 133.826 169.921,134.762 171.974,135.551 172.660 C 136.041 173.087,136.618 174.078,136.964 175.089 C 137.285 176.028,137.866 177.129,138.255 177.535 C 138.644 177.941,139.248 178.921,139.598 179.712 C 139.947 180.504,140.594 181.604,141.034 182.158 C 141.474 182.712,141.925 183.554,142.037 184.029 C 142.341 185.326,143.019 186.534,143.780 187.133 C 144.154 187.427,144.462 187.820,144.463 188.006 C 144.468 188.630,145.813 191.215,146.527 191.972 C 146.915 192.385,147.468 193.485,147.755 194.419 C 148.058 195.404,148.610 196.428,149.073 196.863 C 150.011 197.745,150.639 198.911,150.892 200.241 C 150.993 200.770,151.585 201.782,152.209 202.491 C 152.834 203.200,153.425 204.149,153.524 204.601 C 153.624 205.053,154.035 205.778,154.438 206.213 C 154.841 206.648,155.421 207.792,155.727 208.754 C 156.109 209.955,156.595 210.784,157.278 211.397 C 157.826 211.889,158.273 212.447,158.273 212.638 C 158.273 213.179,159.725 216.115,159.993 216.115 C 160.124 216.115,160.491 216.525,160.808 217.026 C 161.947 218.825,162.465 218.774,143.544 218.740 L 126.536 218.710 125.553 217.961 C 124.990 217.531,124.251 216.517,123.822 215.584 C 123.409 214.689,122.722 213.568,122.295 213.094 C 121.868 212.619,121.280 211.550,120.989 210.718 C 120.696 209.879,119.973 208.698,119.367 208.067 C 118.765 207.441,118.273 206.658,118.273 206.328 C 118.273 205.509,117.570 204.212,116.571 203.190 C 116.114 202.723,115.584 201.847,115.393 201.243 C 115.201 200.638,114.541 199.358,113.925 198.397 C 113.310 197.437,112.806 196.451,112.806 196.208 C 112.806 195.964,112.306 195.196,111.696 194.501 C 111.085 193.806,110.494 192.914,110.383 192.518 C 110.019 191.230,109.542 190.378,108.610 189.353 C 108.107 188.799,107.465 187.633,107.185 186.763 C 106.899 185.877,106.189 184.625,105.571 183.920 C 104.964 183.227,104.341 182.204,104.187 181.645 C 104.033 181.087,103.599 180.294,103.223 179.883 C 102.847 179.473,102.251 178.424,101.899 177.554 C 101.546 176.683,100.897 175.647,100.455 175.252 C 99.964 174.812,99.446 173.861,99.121 172.806 C 98.801 171.765,98.243 170.736,97.717 170.216 C 96.705 169.215,96.242 168.427,95.988 167.272 C 95.889 166.818,95.506 166.122,95.138 165.725 C 94.262 164.781,93.861 164.007,93.343 162.264 C 92.319 158.815,89.313 157.738,87.066 160.015 C 86.371 160.719,85.593 161.489,85.337 161.727 C 85.081 161.964,84.436 162.612,83.902 163.165 C 83.369 163.719,82.629 164.470,82.257 164.832 C 81.886 165.195,81.097 165.967,80.504 166.547 C 79.201 167.820,78.950 168.971,80.189 167.986 C 80.618 167.644,83.845 164.610,84.655 163.786 C 84.865 163.573,85.919 162.499,86.998 161.398 C 89.167 159.187,89.433 159.131,91.109 160.543 C 92.099 161.376,92.806 162.573,93.085 163.885 C 93.185 164.360,93.655 165.295,94.128 165.964 C 94.602 166.632,95.296 167.873,95.670 168.720 C 96.045 169.567,96.670 170.469,97.060 170.724 C 97.540 171.038,97.944 171.771,98.308 172.988 C 98.651 174.132,99.172 175.107,99.740 175.667 C 100.230 176.151,100.867 177.194,101.155 177.986 C 101.442 178.777,102.012 179.878,102.421 180.432 C 102.830 180.986,103.445 182.043,103.788 182.781 C 104.131 183.519,104.649 184.363,104.939 184.656 C 105.801 185.526,106.408 186.596,106.742 187.836 C 106.914 188.477,107.425 189.372,107.877 189.824 C 108.328 190.277,108.930 191.295,109.215 192.086 C 109.499 192.878,110.218 194.043,110.812 194.676 C 111.406 195.309,112.016 196.290,112.167 196.855 C 112.319 197.420,112.961 198.650,113.593 199.589 C 114.226 200.527,114.827 201.649,114.930 202.081 C 115.032 202.513,115.474 203.290,115.911 203.808 C 116.725 204.771,117.070 205.397,117.804 207.242 C 118.035 207.822,118.613 208.644,119.090 209.068 C 119.654 209.571,120.072 210.324,120.289 211.228 C 120.509 212.144,121.006 213.033,121.750 213.838 C 122.370 214.510,122.879 215.200,122.881 215.372 C 122.888 216.167,124.264 218.298,125.074 218.769 C 125.917 219.260,127.104 219.297,143.466 219.333 L 160.956 219.372 161.492 218.711 C 162.144 217.906,162.006 217.325,160.710 215.396 C 160.177 214.604,159.533 213.457,159.278 212.846 C 159.023 212.235,158.368 211.275,157.823 210.714 C 157.273 210.147,156.699 209.170,156.532 208.516 C 156.198 207.207,155.368 205.468,155.076 205.468 C 154.973 205.468,154.524 204.723,154.080 203.813 C 153.636 202.903,153.135 202.001,152.967 201.809 C 152.207 200.938,152.030 200.618,151.422 199.018 C 151.066 198.083,150.466 197.031,150.087 196.680 C 149.427 196.068,148.511 194.323,148.053 192.806 C 147.934 192.410,147.481 191.679,147.047 191.181 C 146.613 190.684,146.021 189.648,145.731 188.879 C 145.441 188.111,144.776 187.029,144.254 186.475 C 143.731 185.921,143.162 184.950,142.989 184.317 C 142.579 182.820,142.039 181.794,141.165 180.851 C 140.776 180.431,140.307 179.615,140.123 179.037 C 139.938 178.459,139.348 177.412,138.810 176.710 C 138.273 176.008,137.685 174.939,137.504 174.334 C 137.322 173.728,136.677 172.695,136.069 172.036 C 135.461 171.378,134.963 170.699,134.962 170.528 C 134.957 169.468,134.226 167.974,133.249 167.026 C 132.444 166.245,132.062 165.591,131.924 164.763 C 131.676 163.270,131.170 162.294,130.080 161.204 C 129.601 160.724,129.209 160.132,129.209 159.888 C 129.209 159.229,128.292 157.396,127.567 156.607 C 127.218 156.227,126.781 155.442,126.596 154.864 C 126.411 154.286,125.773 153.165,125.178 152.374 C 124.582 151.583,124.005 150.612,123.895 150.216 C 123.492 148.766,122.831 147.608,122.151 147.163 C 121.721 146.881,121.380 146.305,121.259 145.655 C 120.941 143.942,120.120 142.303,119.315 141.775 C 118.900 141.504,118.561 141.083,118.561 140.841 C 118.561 140.043,117.360 137.709,116.648 137.122 C 114.918 135.698,114.980 132.366,116.753 131.541 C 117.104 131.378,117.687 130.787,118.048 130.228 C 118.409 129.669,118.935 129.136,119.216 129.044 C 119.497 128.952,119.951 128.534,120.223 128.114 C 120.496 127.694,122.327 125.794,124.291 123.891 C 126.256 121.988,128.134 120.129,128.464 119.759 C 128.794 119.388,130.022 118.158,131.191 117.025 C 132.361 115.891,133.591 114.658,133.925 114.283 C 134.259 113.909,135.488 112.679,136.655 111.549 C 137.823 110.420,139.053 109.184,139.389 108.802 C 139.725 108.421,140.318 107.838,140.706 107.507 C 141.094 107.177,141.677 106.609,142.001 106.245 C 142.465 105.724,145.812 102.341,149.933 98.227 C 150.117 98.043,151.368 96.792,152.713 95.447 C 154.059 94.102,155.271 92.892,155.408 92.760 C 155.545 92.627,156.537 91.604,157.613 90.487 C 158.688 89.370,160.045 88.108,160.628 87.682 C 161.211 87.255,161.761 86.676,161.851 86.393 C 161.940 86.111,162.398 85.653,162.867 85.376 C 164.057 84.673,164.604 84.074,164.604 83.475 C 164.604 82.760,163.301 81.426,162.676 81.501 C 162.391 81.535,154.971 81.640,146.187 81.734 M163.741 117.456 C 159.050 117.821,157.112 118.221,155.713 119.110 C 154.984 119.573,153.288 120.242,151.942 120.597 C 149.968 121.118,149.272 121.456,148.334 122.348 C 147.695 122.956,147.027 123.453,146.849 123.453 C 146.671 123.453,146.219 123.818,145.845 124.263 C 145.470 124.708,144.669 125.408,144.066 125.819 C 143.462 126.229,142.653 127.027,142.270 127.592 C 141.886 128.157,141.315 128.756,141.000 128.925 C 140.686 129.093,140.052 129.978,139.591 130.891 C 139.129 131.805,138.536 132.732,138.272 132.951 C 137.780 133.359,136.893 135.122,136.537 136.403 C 136.426 136.799,136.024 137.539,135.643 138.048 C 134.919 139.015,133.999 142.303,133.680 145.066 C 133.578 145.952,133.318 147.265,133.102 147.982 C 132.693 149.341,132.717 149.693,133.635 155.683 C 134.300 160.023,134.606 161.096,135.504 162.238 C 135.967 162.827,136.560 164.066,136.822 164.991 C 137.160 166.185,137.616 166.985,138.395 167.748 C 138.998 168.339,139.652 169.330,139.849 169.951 C 140.175 170.981,140.918 171.895,143.648 174.625 C 145.966 176.943,146.713 177.531,148.201 178.212 C 149.072 178.610,150.055 179.193,150.387 179.509 C 151.227 180.309,152.485 180.921,153.796 181.167 C 154.409 181.282,155.246 181.551,155.657 181.765 C 156.067 181.980,156.554 182.156,156.739 182.157 C 156.923 182.157,157.118 182.286,157.170 182.443 C 157.550 183.569,172.592 183.600,175.108 182.480 C 177.563 181.387,177.669 181.344,178.790 181.001 C 179.390 180.817,180.427 180.250,181.094 179.741 C 181.762 179.231,182.954 178.500,183.744 178.116 C 184.534 177.732,185.453 177.137,185.788 176.794 C 186.122 176.451,186.770 175.976,187.227 175.739 C 188.328 175.166,191.195 171.889,192.023 170.256 C 192.386 169.540,193.136 168.461,193.689 167.858 C 194.243 167.256,194.935 166.115,195.227 165.324 C 195.519 164.532,195.990 163.496,196.273 163.022 C 196.815 162.113,197.986 157.663,197.986 156.514 C 197.986 156.143,198.321 154.962,198.731 153.890 C 199.580 151.667,199.577 149.767,198.719 147.050 C 198.444 146.180,198.047 144.496,197.835 143.309 C 197.186 139.666,196.807 138.406,195.985 137.165 C 195.550 136.508,194.955 135.293,194.664 134.464 C 194.372 133.634,193.774 132.563,193.336 132.083 C 192.898 131.603,192.326 130.762,192.066 130.214 C 191.806 129.666,191.161 128.950,190.632 128.623 C 190.103 128.296,189.589 127.773,189.490 127.461 C 189.391 127.148,188.599 126.368,187.731 125.727 C 186.863 125.085,186.083 124.381,185.999 124.162 C 185.915 123.942,185.576 123.677,185.246 123.573 C 184.916 123.468,184.139 122.912,183.520 122.339 C 182.421 121.320,180.505 120.502,178.360 120.136 C 177.775 120.036,176.723 119.575,176.022 119.111 C 174.192 117.898,168.286 117.103,163.741 117.456 " stroke="none" fill="#fcac07" fill-rule="evenodd"></path></g></svg>